<svg xmlns="http://www.w3.org/2000/svg" viewBox="0 0 498.74 226.85"><defs><style>.cls-10,.cls-6{letter-spacing:-.02em}</style></defs><g id="Capa_2" data-name="Capa 2"><g id="Capa_1-2" data-name="Capa 1"><text transform="translate(0 168.33)" font-size="41.49" fill="#ba927c" font-family="AbrahamLincoln,Abraham Lincoln">Bien<tspan x="50.99" y="0" letter-spacing="-.02em">v</tspan><tspan x="63.85" y="0">en</tspan><tspan x="92.8" y="0" letter-spacing=".01em">i</tspan><tspan x="101.27" y="0">dos al sitio </tspan><tspan x="240.41" y="0" letter-spacing="-.01em">o</tspan><tspan x="253.89" y="0" letter-spacing="0">f</tspan><tspan class="cls-6" x="264.97" y="0">i</tspan><tspan x="272.35" y="0">cial de </tspan><tspan class="cls-6" x="359.8" y="0">C</tspan><tspan x="373.12" y="0" letter-spacing="-.01em">a</tspan><tspan x="387.31" y="0" letter-spacing="-.02em">v</tspan><tspan x="400.17" y="0">a de Oro</tspan></text><text transform="translate(97.49 202.58)" font-size="13.63" fill="#939598" font-family="Baskerville-SemiBold,Baskerville" font-weight="600">Antes de conocer la calidad de <tspan class="cls-10" x="194.54" y="0">n</tspan><tspan x="202.4" y="0">uestros deliciosos </tspan><tspan x="14.92" y="14.76">producto</tspan><tspan x="72.45" y="14.76" letter-spacing="-.05em">s</tspan><tspan x="78.35" y="14.76">, confi</tspan><tspan x="116.84" y="14.76" letter-spacing=".04em">r</tspan><tspan x="123.42" y="14.76">ma que eres m</tspan><tspan class="cls-10" x="216.41" y="14.76">a</tspan><tspan x="223.55" y="14.76" letter-spacing="-.03em">y</tspan><tspan x="230.4" y="14.76">or de edad.</tspan></text><path d="M234.53 23.22c0-3.74-1.91-5.72-5.53-5.72-2.74 0-5.47 1.22-8.11 3.63s-4 4.93-4 7.43c0 2.12 1.37 2.44 2.19 2.44a2.09 2.09 0 0 0 2.34-2.29 1.63 1.63 0 0 0-1.78-1.81 2.3 2.3 0 0 0-1.25.42c.19-1.64 1.41-3.44 3.63-5.36 2.46-2.12 4.76-3.19 6.87-3.19a4.27 4.27 0 0 1 3 1A3.57 3.57 0 0 1 233 22.6c0 2.35-1.17 4.89-3.49 7.55-3.85 4.45-8.28 6.7-13.18 6.7a8.94 8.94 0 0 1-6.06-1.94 6.61 6.61 0 0 1-2.18-5.27c0-3.29 1.35-6.76 4-10.33h1.06a42.6 42.6 0 0 0 11.89-2 38 38 0 0 0 10.25-4.49 8 8 0 0 1 1.55 4.48c0 1 .41 1.27.75 1.27s.83-.08.83-1.06a9.88 9.88 0 0 0-2-5.5c1.51-1.17 2.24-2.32 2.24-3.47 0-1.92-1.93-2.89-5.73-2.89a18.38 18.38 0 0 0-3.13.27C223.76 2.28 217.68.41 211.73.41a20.54 20.54 0 0 0-10.89 2.7c-3 1.83-4.48 4.15-4.48 6.9 0 4.47 3.77 7.46 11.21 8.88a15.36 15.36 0 0 0-2.86 8.44 10.1 10.1 0 0 0 3.34 7.67 11.6 11.6 0 0 0 8.2 3.11 19.58 19.58 0 0 0 12.58-4.6c3.78-3.07 5.7-6.53 5.7-10.3m-14.27-11.47a31.89 31.89 0 0 1 9.41-4.29 19.31 19.31 0 0 1 5 4.37 36.63 36.63 0 0 1-10.17 4.33A46.69 46.69 0 0 1 213.17 18a31.72 31.72 0 0 1 7.09-6.26zM202.15 5a18.68 18.68 0 0 1 9.63-2.44 35 35 0 0 1 16 3.82c-8.57 2-15.09 5.83-19.42 11.4-6.75-1.15-10.18-3.6-10.18-7.29-.03-2.07 1.32-3.92 3.97-5.49zm35.23 3.6c0 .67-.57 1.51-1.67 2.46a20.63 20.63 0 0 0-4.18-3.92 14.69 14.69 0 0 1 2-.17c2.57.03 3.85.54 3.85 1.62zM233 33a4.78 4.78 0 0 0 1.06 3.15 3.39 3.39 0 0 0 2.7 1.29 4.59 4.59 0 0 0 3-1.33 23.85 23.85 0 0 0 2.54-2.77 4.54 4.54 0 0 0 0 .63 3.5 3.5 0 0 0 .89 2.47 3 3 0 0 0 2.31 1c1.35 0 3.06-1.21 5.25-3.7a5.06 5.06 0 0 0 .39-.43 4.08 4.08 0 0 0-.06.68 3.26 3.26 0 0 0 1.06 2.44 3.63 3.63 0 0 0 2.58 1 5.17 5.17 0 0 0 3.28-1.3 23.8 23.8 0 0 0 3.59-3.9 2.54 2.54 0 0 0 1.95.92 5.33 5.33 0 0 0 3.22-1.4 6.22 6.22 0 0 0-.11 1.22 4.77 4.77 0 0 0 1.05 3.15 3.42 3.42 0 0 0 2.7 1.29 4.61 4.61 0 0 0 3-1.33 24.78 24.78 0 0 0 2.54-2.77 4.46 4.46 0 0 0-.05.63 3.55 3.55 0 0 0 .89 2.47 3 3 0 0 0 2.32 1c1.34 0 3.06-1.21 5.26-3.7 4-4.45 4-4.88 4-5.16a.56.56 0 0 0-.58-.57.92.92 0 0 0-.66.42 41.46 41.46 0 0 1-4.72 5.6c-1.92 1.89-2.76 2.18-3.1 2.18s-.6-.06-.6-.76c0-.41.31-1.59 2.38-4.85l4.71-7.34-.44-.66a12.67 12.67 0 0 1-1.79.17 6.12 6.12 0 0 1-1.31-.17l-.32-.07-.59 1.07a1.86 1.86 0 0 0-2-1.21 12.37 12.37 0 0 0-5.29 1.7A16.43 16.43 0 0 0 268 28.9c-1.78 2-3.27 3.07-4.44 3.07-.54 0-1.58-.27-1.22-.67 2.7-3 4.15-5.66 4.34-7.77a1 1 0 0 0-1.09-1.16c-1.1 0-2.16.86-3.25 2.61a9.37 9.37 0 0 0-1.55 4.91 4.94 4.94 0 0 0 .18 1.23 30.8 30.8 0 0 1-3.72 4 3.78 3.78 0 0 1-2.39 1c-.9 0-1-.39-1-.76s.3-1.45 1.76-3.71l5.56-8.47-.46-.66a7.13 7.13 0 0 1-1.48.12c-.28 0-.85 0-1.7-.13h-.27l-3.57 5.63a1.92 1.92 0 0 0-.18.22 42.23 42.23 0 0 1-4.73 5.64c-1.92 1.88-2.77 2.17-3.1 2.17s-.6-.06-.6-.76c0-.41.3-1.59 2.38-4.85l4.7-7.34-.43-.66a12.81 12.81 0 0 1-1.79.17 6.28 6.28 0 0 1-1.32-.17l-.32-.07-.59 1.07a1.84 1.84 0 0 0-2-1.21 12.44 12.44 0 0 0-5.3 1.7C235.5 26.61 233 29.6 233 33m13.56-8.57c0 .73-.62 2.4-3.6 6.2-3.63 4.61-5.28 5.58-6 5.58s-1.11-.35-1.11-1.2c0-1.74 1.3-4.1 3.86-7s4.61-4.37 6.09-4.37c.56-.04.76.18.76.76zm33.62 0c0 .73-.63 2.4-3.61 6.2-3.81 4.85-5.4 5.58-6 5.58-.78 0-1.11-.35-1.11-1.2 0-1.74 1.3-4.1 3.86-7s4.61-4.37 6.1-4.37c.58-.04.76.18.76.76zM312.81 72c-.29 0-.58.19-1 .63a12.94 12.94 0 0 1-3.68 3.2c-1.94 1.16-3.58 1.55-4.86 1.18 2.95-3.46 4.39-6.37 4.39-8.9 0-1.57-.65-3.43-3.77-3.43-2.48 0-5.52 1.1-9.29 3.36a23.52 23.52 0 0 0-5.47 4.26 6.36 6.36 0 0 0-.67.58c-2.27 2.7-4.38 4.07-6.26 4.07-1.39 0-2-.71-2-2.32a7.3 7.3 0 0 1 .47-2.21l.33-.23.36-.18 2.19-1.15c5-2.73 5.62-4.09 5.62-4.87 0-.4-.16-1.31-1.64-1.31a6.59 6.59 0 0 0-4.22 2.07 16.74 16.74 0 0 0-3.72 4.9c-.41.29-.82.59-1.24.92a8.6 8.6 0 0 0 1.35-4.09c0-3.15-1.92-3.8-3.53-3.8-1 0-3 .71-8.45 6.86l-.67.8a.89.89 0 0 0-.26.44v.11a.63.63 0 0 0 .5.63h.09a1.24 1.24 0 0 0 .95-.61c4.61-5.74 6.67-6.91 7.56-6.91.31 0 .45.07.45.49 0 .64-.81 2.54-4.69 7.86L265.28 83l.39.69 2.33-.14c.13 0 .61 0 2.37.14h.25l.14-.19c2.41-3.49 4.23-6 5.27-7.18a21.37 21.37 0 0 1 2.89-2.71 6.06 6.06 0 0 0-.14 1.19c0 2.17 1.17 3.31 3.38 3.31a7.78 7.78 0 0 0 4.65-1.85 6.81 6.81 0 0 0-.24 1.78 5.69 5.69 0 0 0 1.78 4.19 5.93 5.93 0 0 0 4.29 1.77c3.05 0 6.32-2 9.74-6a6.08 6.08 0 0 0 2 .31c2 0 4.23-1 6.55-3s2.45-2.43 2.45-2.79a.55.55 0 0 0-.57-.56m-17.26-.48c3.29-3.69 6.08-5.56 8.29-5.56 1.66 0 2.4.69 2.4 2.21a5.09 5.09 0 0 1-.28 1.72 1.22 1.22 0 0 0-.75-.24 4.54 4.54 0 0 0-3.28 1.83 5.57 5.57 0 0 0-1.62 3.6 3.18 3.18 0 0 0 1 2.19c-3.12 3.56-6 5.37-8.58 5.37-1.47 0-2.12-.56-2.12-1.82-.03-2.5 1.64-5.62 4.94-9.31zm-25.34-14.8a13.87 13.87 0 0 0-1-5.16 12.94 12.94 0 0 0 .6-3.55 7.26 7.26 0 0 0-3.39-6.22 15.39 15.39 0 0 0-8.8-2.26 42.83 42.83 0 0 0-12.21 2 52.61 52.61 0 0 0-12.14 5.34 39.48 39.48 0 0 0-12.08 10.89c-3 4.21-4.51 8.43-4.51 12.52a14.35 14.35 0 0 0 4.58 11c3 2.79 7 4.21 11.88 4.21a35.85 35.85 0 0 0 12.08-2.4 51.66 51.66 0 0 0 12.26-6.49 35.17 35.17 0 0 0 9.35-9.49 19.4 19.4 0 0 0 3.4-10.43M221 73.44c0-5 1.94-10.08 5.76-15.16a43.76 43.76 0 0 1 14.18-12.23 37 37 0 0 1 17.83-4.95 11.63 11.63 0 0 1 7 1.95 5.87 5.87 0 0 1 2.58 5 6.82 6.82 0 0 1-.16 1.47 10.12 10.12 0 0 0-4.22-3.64 17 17 0 0 0-7.76-1.74c-6.66 0-13.4 2.71-20 8s-10 10.82-10 16.25a8.41 8.41 0 0 0 2.34 6.08 8 8 0 0 0 5.89 2.44 7.33 7.33 0 0 0 4.38-1.36 4.12 4.12 0 0 0 1.95-3.36c0-1.81-1-2.76-2.92-2.76a3.64 3.64 0 0 0-2.41.85 2.75 2.75 0 0 0-1.05 2.2 2 2 0 0 0 2.25 2.23 4.31 4.31 0 0 0 .85-.08l-.39.2a5.69 5.69 0 0 1-2.5.62 5.3 5.3 0 0 1-4.18-1.76 6.78 6.78 0 0 1-1.6-4.71c0-5 3.13-10.2 9.33-15.49s12.33-8 18.2-8a11.13 11.13 0 0 1 7.39 2.29 7.57 7.57 0 0 1 2.68 6.06 19.28 19.28 0 0 1-8.83 7.51c-.47.24-.86.46-.86.85a.68.68 0 0 0 .75.69c.58 0 1.72-.29 4.86-2.75a30.43 30.43 0 0 0 3.66-3.39c-1.2 6.18-5.16 12.18-11.78 17.86-7.21 6.18-14.46 9.31-21.56 9.31A12.27 12.27 0 0 1 224.2 81a9.6 9.6 0 0 1-3.2-7.56zm69.81-19.62c.67 0 1.53-.56 2.66-1.76v.11a1.63 1.63 0 0 0 .46 1.18 1.66 1.66 0 0 0 1.2.47c.74 0 1.76-.69 3.09-2.11a2.06 2.06 0 0 0 .72 1.47 2.48 2.48 0 0 0 1.74.64c1.39 0 3-1 4.89-2.94l.56-.59c.27-.29.31-.38.31-.5a.34.34 0 0 0-.26-.34h-.07a.72.72 0 0 0-.49.28c-1.94 2.21-3.58 3.33-4.88 3.33-.82 0-.93-.34-.93-.67a3.09 3.09 0 0 1 .76-1.64 18.46 18.46 0 0 0 4.1-1.05c.93-.43 1.41-1 1.41-1.62a1 1 0 0 0-.46-.82 1.63 1.63 0 0 0-1-.3 7.52 7.52 0 0 0-2.95.83 6.72 6.72 0 0 0-3.13 2.45c-2.08 2.48-3 2.85-3.36 2.85s-.18-.09-.18-.23.12-.57 1.26-2.2c.89-1.29 3.11-4.29 6.22-8.45l-.25-.46h-.8a3 3 0 0 1-.78-.1h-.2l-4.15 5.86c-.11-.28-.38-.55-1-.55a8.07 8.07 0 0 0-3.51 1.23c-1.89 1-2.85 2.24-2.85 3.57a2.06 2.06 0 0 0 .56 1.47 1.8 1.8 0 0 0 1.38.6m1.47-4.22c1.54-1.57 2.44-1.9 2.93-1.9.32 0 .35.13.35.3s-.17.71-1.31 2.09c-2.14 2.6-3 3-3.39 3s-.44-.13-.44-.46c-.07-.76.56-1.77 1.79-3.04zm11.31-.69a10 10 0 0 1-2.23.9 11.25 11.25 0 0 1 1.56-1.37 3.31 3.31 0 0 1 1.67-.77c.13 0 .17 0 .18.07s-.23.58-1.25 1.16z" fill="none" stroke-miterlimit="10" stroke="#a0824d" stroke-width=".82"/><path d="M234.53 23.22c0-3.74-1.91-5.72-5.53-5.72-2.74 0-5.47 1.22-8.11 3.63s-4 4.93-4 7.43c0 2.12 1.37 2.44 2.19 2.44a2.09 2.09 0 0 0 2.34-2.29 1.63 1.63 0 0 0-1.78-1.81 2.3 2.3 0 0 0-1.25.42c.19-1.64 1.41-3.44 3.63-5.36 2.46-2.12 4.76-3.19 6.87-3.19a4.27 4.27 0 0 1 3 1A3.57 3.57 0 0 1 233 22.6c0 2.35-1.17 4.89-3.49 7.55-3.85 4.45-8.28 6.7-13.18 6.7a8.94 8.94 0 0 1-6.06-1.94 6.61 6.61 0 0 1-2.18-5.27c0-3.29 1.35-6.76 4-10.33h1.06a42.6 42.6 0 0 0 11.89-2 38 38 0 0 0 10.25-4.49 8 8 0 0 1 1.55 4.48c0 1 .41 1.27.75 1.27s.83-.08.83-1.06a9.88 9.88 0 0 0-2-5.5c1.51-1.17 2.24-2.32 2.24-3.47 0-1.92-1.93-2.89-5.73-2.89a18.38 18.38 0 0 0-3.13.27C223.76 2.28 217.68.41 211.73.41a20.54 20.54 0 0 0-10.89 2.7c-3 1.83-4.48 4.15-4.48 6.9 0 4.47 3.77 7.46 11.21 8.88a15.36 15.36 0 0 0-2.86 8.44 10.1 10.1 0 0 0 3.34 7.67 11.6 11.6 0 0 0 8.2 3.11 19.58 19.58 0 0 0 12.58-4.6c3.78-3.07 5.7-6.53 5.7-10.3m-14.27-11.47a31.89 31.89 0 0 1 9.41-4.29 19.31 19.31 0 0 1 5 4.37 36.63 36.63 0 0 1-10.17 4.33A46.69 46.69 0 0 1 213.17 18a31.72 31.72 0 0 1 7.09-6.26zM202.15 5a18.68 18.68 0 0 1 9.63-2.44 35 35 0 0 1 16 3.82c-8.57 2-15.09 5.83-19.42 11.4-6.75-1.15-10.18-3.6-10.18-7.29-.03-2.07 1.32-3.92 3.97-5.49zm35.23 3.6c0 .67-.57 1.51-1.67 2.46a20.63 20.63 0 0 0-4.18-3.92 14.69 14.69 0 0 1 2-.17c2.57.03 3.85.54 3.85 1.62zM233 33a4.78 4.78 0 0 0 1.06 3.15 3.39 3.39 0 0 0 2.7 1.29 4.59 4.59 0 0 0 3-1.33 23.85 23.85 0 0 0 2.54-2.77 4.54 4.54 0 0 0 0 .63 3.5 3.5 0 0 0 .89 2.47 3 3 0 0 0 2.31 1c1.35 0 3.06-1.21 5.25-3.7a5.06 5.06 0 0 0 .39-.43 4.08 4.08 0 0 0-.06.68 3.26 3.26 0 0 0 1.06 2.44 3.63 3.63 0 0 0 2.58 1 5.17 5.17 0 0 0 3.28-1.3 23.8 23.8 0 0 0 3.59-3.9 2.54 2.54 0 0 0 1.95.92 5.33 5.33 0 0 0 3.22-1.4 6.22 6.22 0 0 0-.11 1.22 4.77 4.77 0 0 0 1.05 3.15 3.42 3.42 0 0 0 2.7 1.29 4.61 4.61 0 0 0 3-1.33 24.78 24.78 0 0 0 2.54-2.77 4.46 4.46 0 0 0-.05.63 3.55 3.55 0 0 0 .89 2.47 3 3 0 0 0 2.32 1c1.34 0 3.06-1.21 5.26-3.7 4-4.45 4-4.88 4-5.16a.56.56 0 0 0-.58-.57.92.92 0 0 0-.66.42 41.46 41.46 0 0 1-4.72 5.6c-1.92 1.89-2.76 2.18-3.1 2.18s-.6-.06-.6-.76c0-.41.31-1.59 2.38-4.85l4.71-7.34-.44-.66a12.67 12.67 0 0 1-1.79.17 6.12 6.12 0 0 1-1.31-.17l-.32-.07-.59 1.07a1.86 1.86 0 0 0-2-1.21 12.37 12.37 0 0 0-5.29 1.7A16.43 16.43 0 0 0 268 28.9c-1.78 2-3.27 3.07-4.44 3.07-.54 0-1.58-.27-1.22-.67 2.7-3 4.15-5.66 4.34-7.77a1 1 0 0 0-1.09-1.16c-1.1 0-2.16.86-3.25 2.61a9.37 9.37 0 0 0-1.55 4.91 4.94 4.94 0 0 0 .18 1.23 30.8 30.8 0 0 1-3.72 4 3.78 3.78 0 0 1-2.39 1c-.9 0-1-.39-1-.76s.3-1.45 1.76-3.71l5.56-8.47-.46-.66a7.13 7.13 0 0 1-1.48.12c-.28 0-.85 0-1.7-.13h-.27l-3.57 5.63a1.92 1.92 0 0 0-.18.22 42.23 42.23 0 0 1-4.73 5.64c-1.92 1.88-2.77 2.17-3.1 2.17s-.6-.06-.6-.76c0-.41.3-1.59 2.38-4.85l4.7-7.34-.43-.66a12.81 12.81 0 0 1-1.79.17 6.28 6.28 0 0 1-1.32-.17l-.32-.07-.59 1.07a1.84 1.84 0 0 0-2-1.21 12.44 12.44 0 0 0-5.3 1.7C235.5 26.61 233 29.6 233 33m13.56-8.57c0 .73-.62 2.4-3.6 6.2-3.63 4.61-5.28 5.58-6 5.58s-1.11-.35-1.11-1.2c0-1.74 1.3-4.1 3.86-7s4.61-4.37 6.09-4.37c.56-.04.76.18.76.76zm33.62 0c0 .73-.63 2.4-3.61 6.2-3.81 4.85-5.4 5.58-6 5.58-.78 0-1.11-.35-1.11-1.2 0-1.74 1.3-4.1 3.86-7s4.61-4.37 6.1-4.37c.58-.04.76.18.76.76zM312.81 72c-.29 0-.58.19-1 .63a12.94 12.94 0 0 1-3.68 3.2c-1.94 1.16-3.58 1.55-4.86 1.18 2.95-3.46 4.39-6.37 4.39-8.9 0-1.57-.65-3.43-3.77-3.43-2.48 0-5.52 1.1-9.29 3.36a23.52 23.52 0 0 0-5.47 4.26 6.36 6.36 0 0 0-.67.58c-2.27 2.7-4.38 4.07-6.26 4.07-1.39 0-2-.71-2-2.32a7.3 7.3 0 0 1 .47-2.21l.33-.23.36-.18 2.19-1.15c5-2.73 5.62-4.09 5.62-4.87 0-.4-.16-1.31-1.64-1.31a6.59 6.59 0 0 0-4.22 2.07 16.74 16.74 0 0 0-3.72 4.9c-.41.29-.82.59-1.24.92a8.6 8.6 0 0 0 1.35-4.09c0-3.15-1.92-3.8-3.53-3.8-1 0-3 .71-8.45 6.86l-.67.8a.89.89 0 0 0-.26.44v.11a.63.63 0 0 0 .5.63h.09a1.24 1.24 0 0 0 .95-.61c4.61-5.74 6.67-6.91 7.56-6.91.31 0 .45.07.45.49 0 .64-.81 2.54-4.69 7.86L265.28 83l.39.69 2.33-.14c.13 0 .61 0 2.37.14h.25l.14-.19c2.41-3.49 4.23-6 5.27-7.18a21.37 21.37 0 0 1 2.89-2.71 6.06 6.06 0 0 0-.14 1.19c0 2.17 1.17 3.31 3.38 3.31a7.78 7.78 0 0 0 4.65-1.85 6.81 6.81 0 0 0-.24 1.78 5.69 5.69 0 0 0 1.78 4.19 5.93 5.93 0 0 0 4.29 1.77c3.05 0 6.32-2 9.74-6a6.08 6.08 0 0 0 2 .31c2 0 4.23-1 6.55-3s2.45-2.43 2.45-2.79a.55.55 0 0 0-.57-.56m-17.26-.48c3.29-3.69 6.08-5.56 8.29-5.56 1.66 0 2.4.69 2.4 2.21a5.09 5.09 0 0 1-.28 1.72 1.22 1.22 0 0 0-.75-.24 4.54 4.54 0 0 0-3.28 1.83 5.57 5.57 0 0 0-1.62 3.6 3.18 3.18 0 0 0 1 2.19c-3.12 3.56-6 5.37-8.58 5.37-1.47 0-2.12-.56-2.12-1.82-.03-2.5 1.64-5.62 4.94-9.31zm-25.34-14.8a13.87 13.87 0 0 0-1-5.16 12.94 12.94 0 0 0 .6-3.55 7.26 7.26 0 0 0-3.39-6.22 15.39 15.39 0 0 0-8.8-2.26 42.83 42.83 0 0 0-12.21 2 52.61 52.61 0 0 0-12.14 5.34 39.48 39.48 0 0 0-12.08 10.89c-3 4.21-4.51 8.43-4.51 12.52a14.35 14.35 0 0 0 4.58 11c3 2.79 7 4.21 11.88 4.21a35.85 35.85 0 0 0 12.08-2.4 51.66 51.66 0 0 0 12.26-6.49 35.17 35.17 0 0 0 9.35-9.49 19.4 19.4 0 0 0 3.4-10.43M221 73.44c0-5 1.94-10.08 5.76-15.16a43.76 43.76 0 0 1 14.18-12.23 37 37 0 0 1 17.83-4.95 11.63 11.63 0 0 1 7 1.95 5.87 5.87 0 0 1 2.58 5 6.82 6.82 0 0 1-.16 1.47 10.12 10.12 0 0 0-4.22-3.64 17 17 0 0 0-7.76-1.74c-6.66 0-13.4 2.71-20 8s-10 10.82-10 16.25a8.41 8.41 0 0 0 2.34 6.08 8 8 0 0 0 5.89 2.44 7.33 7.33 0 0 0 4.38-1.36 4.12 4.12 0 0 0 1.95-3.36c0-1.81-1-2.76-2.92-2.76a3.64 3.64 0 0 0-2.41.85 2.75 2.75 0 0 0-1.05 2.2 2 2 0 0 0 2.25 2.23 4.31 4.31 0 0 0 .85-.08l-.39.2a5.69 5.69 0 0 1-2.5.62 5.3 5.3 0 0 1-4.18-1.76 6.78 6.78 0 0 1-1.6-4.71c0-5 3.13-10.2 9.33-15.49s12.33-8 18.2-8a11.13 11.13 0 0 1 7.39 2.29 7.57 7.57 0 0 1 2.68 6.06 19.28 19.28 0 0 1-8.83 7.51c-.47.24-.86.46-.86.85a.68.68 0 0 0 .75.69c.58 0 1.72-.29 4.86-2.75a30.43 30.43 0 0 0 3.66-3.39c-1.2 6.18-5.16 12.18-11.78 17.86-7.21 6.18-14.46 9.31-21.56 9.31A12.27 12.27 0 0 1 224.2 81a9.6 9.6 0 0 1-3.2-7.56zm69.81-19.62c.67 0 1.53-.56 2.66-1.76v.11a1.63 1.63 0 0 0 .46 1.18 1.66 1.66 0 0 0 1.2.47c.74 0 1.76-.69 3.09-2.11a2.06 2.06 0 0 0 .72 1.47 2.48 2.48 0 0 0 1.74.64c1.39 0 3-1 4.89-2.94l.56-.59c.27-.29.31-.38.31-.5a.34.34 0 0 0-.26-.34h-.07a.72.72 0 0 0-.49.28c-1.94 2.21-3.58 3.33-4.88 3.33-.82 0-.93-.34-.93-.67a3.09 3.09 0 0 1 .76-1.64 18.46 18.46 0 0 0 4.1-1.05c.93-.43 1.41-1 1.41-1.62a1 1 0 0 0-.46-.82 1.63 1.63 0 0 0-1-.3 7.52 7.52 0 0 0-2.95.83 6.72 6.72 0 0 0-3.13 2.45c-2.08 2.48-3 2.85-3.36 2.85s-.18-.09-.18-.23.12-.57 1.26-2.2c.89-1.29 3.11-4.29 6.22-8.45l-.25-.46h-.8a3 3 0 0 1-.78-.1h-.2l-4.15 5.86c-.11-.28-.38-.55-1-.55a8.07 8.07 0 0 0-3.51 1.23c-1.89 1-2.85 2.24-2.85 3.57a2.06 2.06 0 0 0 .56 1.47 1.8 1.8 0 0 0 1.38.6m1.47-4.22c1.54-1.57 2.44-1.9 2.93-1.9.32 0 .35.13.35.3s-.17.71-1.31 2.09c-2.14 2.6-3 3-3.39 3s-.44-.13-.44-.46c-.07-.76.56-1.77 1.79-3.04zm11.31-.69a10 10 0 0 1-2.23.9 11.25 11.25 0 0 1 1.56-1.37 3.31 3.31 0 0 1 1.67-.77c.13 0 .17 0 .18.07s-.23.58-1.25 1.16z"/><circle cx="314.32" cy="78.84" r="1.72" stroke="#000" stroke-width=".32" fill="none" stroke-miterlimit="10"/><path d="M313.62 77.82a3.25 3.25 0 0 1 .57 0 1 1 0 0 1 .68.17.49.49 0 0 1 .18.4.55.55 0 0 1-.44.53.53.53 0 0 1 .34.43 4.41 4.41 0 0 0 .18.57h-.31a2.91 2.91 0 0 1-.15-.5c-.07-.29-.2-.4-.47-.41h-.28v.91h-.3zm.3 1h.31c.32 0 .52-.16.52-.4s-.22-.39-.53-.39a1.7 1.7 0 0 0-.3 0z"/></g></g></svg>