<svg xmlns="http://www.w3.org/2000/svg" viewBox="0 0 463.74 55.81"><defs><style>.cls-2{letter-spacing:-.06em}.cls-3{letter-spacing:-.02em}.cls-4{letter-spacing:-.07em}</style></defs><g id="Capa_2" data-name="Capa 2"><text transform="translate(15.13 8.97)" font-size="10" fill="#706f6f" font-family="ArialMT,Arial" id="Capa_1-2" data-name="Capa 1">ENTR<tspan class="cls-2" x="27.22" y="0">A A</tspan><tspan x="41.68" y="0"> ESTE SITIO SÓLO SI</tspan><tspan class="cls-3" x="142.27" y="0"> </tspan><tspan x="144.86" y="0">TIENES L</tspan><tspan class="cls-2" x="189.32" y="0">A</tspan><tspan x="195.44" y="0"> EDAD LEGAR </tspan><tspan class="cls-4" x="265.46" y="0">P</tspan><tspan x="271.39" y="0">AR</tspan><tspan class="cls-2" x="285.28" y="0">A</tspan><tspan class="cls-3" x="291.4" y="0"> T</tspan><tspan x="299.92" y="0">OMAR,</tspan><tspan class="cls-2" x="332.7" y="0"> </tspan><tspan x="334.93" y="0">A</tspan><tspan x="341.6" y="0" letter-spacing="-.04em">L</tspan><tspan x="346.79" y="0"> HACER CLICK EN </tspan><tspan x="-1.75" y="13">ENTRAR,</tspan><tspan class="cls-2" x="42.15" y="13"> </tspan><tspan x="44.37" y="13">ACEP</tspan><tspan class="cls-4" x="71.6" y="13">T</tspan><tspan x="76.97" y="13">AS LOS</tspan><tspan class="cls-3" x="113.1" y="13"> </tspan><tspan x="115.7" y="13">TÉRMINOS DE USO</tspan><tspan class="cls-3" x="209.59" y="13"> Y</tspan><tspan x="218.68" y="13"> L</tspan><tspan class="cls-2" x="227.02" y="13">A</tspan><tspan x="233.14" y="13"> POLÍTIC</tspan><tspan class="cls-2" x="274.81" y="13">A</tspan><tspan x="280.93" y="13"> DE PRI</tspan><tspan class="cls-4" x="317.05" y="13">V</tspan><tspan x="322.98" y="13">ACIDAD DE ESTE SITIO</tspan></text></g></svg>