<svg xmlns="http://www.w3.org/2000/svg" viewBox="0 0 244.94 86.46"><defs><style>.cls-9{fill:#414042}.cls-5{letter-spacing:-.05em}.cls-9{fill-rule:evenodd}</style></defs><g id="Capa_2" data-name="Capa 2"><g id="Capa_1-2" data-name="Capa 1"><text transform="translate(44.12 82.75)" fill="#414042" font-size="7.15" font-family="Baskerville-SemiBold,Baskerville" font-weight="600">TE<tspan x="9.75" y="0" letter-spacing="-.01em">Q</tspan><tspan x="15.63" y="0">UILERA PUE</tspan><tspan x="59.64" y="0" letter-spacing="-.06em">R</tspan><tspan x="64.54" y="0" letter-spacing="-.07em">T</tspan><tspan x="69.07" y="0">A DE HIER</tspan><tspan class="cls-5" x="106.3" y="0">R</tspan><tspan x="111.27" y="0">O </tspan><tspan class="cls-5" x="119.01" y="0">S</tspan><tspan x="122.78" y="0">.A DE </tspan><tspan x="143.47" y="0" letter-spacing="-.02em">C</tspan><tspan x="148.63" y="0">.</tspan><tspan x="150.64" y="0" letter-spacing="-.19em">V</tspan><tspan x="154.7" y="0">.</tspan></text><g opacity=".6"><path class="cls-9" d="M133.93 64c-1.51-.66-1.51-.66-2.07-1.64l2.3-1.26c-.09-.16-.18-.29-.23-.37-1.53.45-3 1-4.53 1.34a29 29 0 0 1-9.1.69 25.25 25.25 0 0 1-9.18-2.38 1.65 1.65 0 0 0-.59 0 1.11 1.11 0 0 1 0 .19l2.62 1.6a28.16 28.16 0 0 1-2.61 1.4 1.62 1.62 0 0 1-1.24-.17c-1.41-.78-2.78-1.63-4.15-2.48-1-.63-1.11-1.33-.32-2.21l1.27-1.39-1.64-1.44a2.46 2.46 0 0 1-.55-3.4c.24-.41.53-.8.77-1.21.38-.7.77-1.41 1.1-2.14.46-1 .93-2 2.15-2.37a5.82 5.82 0 0 1 1-.12c.16-1-.47-1.53-1-2.15l-3-3.44a2.61 2.61 0 0 0-.34.5c-.5 1.53-1 3-1.44 4.59a1.23 1.23 0 0 1-1.06 1.09 19.88 19.88 0 0 0-1.92.67c-.18.06-.34.22-.52.23a.72.72 0 0 1-.49-.18c-.06-.06 0-.35.14-.44.29-.26.64-.43.92-.69a1.71 1.71 0 0 0 .51-.75c.24-1 .34-2.12.62-3.15s.7-1.69 1-2.55a4.69 4.69 0 0 0 .09-1.07c-.93 0-.93 0-1.3-1.17h-.1c-1.2.36-1.49.18-1.58-1.08a7.06 7.06 0 0 1 0-1.38 1.55 1.55 0 0 0-.76-1.78c.17-.18.29-.32.44-.47l.75.68c.17-.32.44-.6.42-.86a.92.92 0 0 0-1-.77c-.53-.05-1.07-.05-1.6-.12a2 2 0 0 1-.59-.29c.12-.2.19-.47.37-.58.43-.29.92-.47 1.36-.74a3.16 3.16 0 0 0 .68-.58 3.05 3.05 0 0 0 .28-.5c.39-.57.9-.66 1.33-.14a1.92 1.92 0 0 0 1.53.8c.49 0 1.17.24 1.18.79 0 .29-.62.61-1 .89a5.11 5.11 0 0 1-.47.21 2.52 2.52 0 0 0-.3.27c.13.11.27.33.39.32 1.44-.13 2.07.84 2.57 1.91s.78 2 1.2 3a1 1 0 0 0 .49.49 9.92 9.92 0 0 1 3.47 1.84c.64.59 1.31 1.13 1.94 1.73a2.24 2.24 0 0 0 1.77.49c-.36-4.28-.06-8.57-.19-12.89h17.43v12.92a2.09 2.09 0 0 0 1.9-.69 17 17 0 0 1 2.52-2.11 25.18 25.18 0 0 1 2.62-1.24 1.07 1.07 0 0 0 .52-.57 13.1 13.1 0 0 1 1.89-4 1.51 1.51 0 0 1 1.45-.76 1.24 1.24 0 0 0 .51-.06.52.52 0 0 0 .29-.29c0-.08-.14-.23-.25-.29-.39-.21-.82-.35-1.18-.59s-.51-.67 0-.95a3.87 3.87 0 0 1 1.3-.41 1 1 0 0 0 .79-.43c.65-.93 1.36-.86 1.84.19a1.26 1.26 0 0 0 .87.79 5.41 5.41 0 0 1 1.35.74c.13.09.29.36.24.46a.72.72 0 0 1-.47.32c-.5.07-1 .06-1.5.12a2 2 0 0 0-.8.25c-.55.36-.48.79.19 1.33.2-.2.41-.39.67-.62l.34.35c0 .1 0 .15-.05.16a1.66 1.66 0 0 0-.64 1.82 6.2 6.2 0 0 1 0 1.55c-.1 1-.38 1.15-1.34.9l-.26-.09c-.35.47-.18 1.43-1.18 1.16-.35.53-.11.94.09 1.44a16.22 16.22 0 0 1 1.4 5.06A1.15 1.15 0 0 0 145 47a2.72 2.72 0 0 1 .76.6c.09.1.19.33.14.39a.51.51 0 0 1-.42.21 2.55 2.55 0 0 1-.63-.24 18.05 18.05 0 0 0-1.87-.66c-.73-.18-.86-.37-1.05-1.07-.45-1.58-1-3.13-1.51-4.69 0-.13-.18-.23-.32-.39L137.65 44c-.15.18-.29.37-.45.53a3.15 3.15 0 0 0-1.07 2.47.49.49 0 0 0 .14 0c2 0 2.57.5 3.16 2.43a13.79 13.79 0 0 0 1.64 3.57 2.23 2.23 0 0 1-.06 2.76 20.48 20.48 0 0 1-1.75 2 6.56 6.56 0 0 1-.52.44c.33.34.64.65.94 1a1.7 1.7 0 0 1-.5 2.94c-1.3.65-2.57 1.33-3.86 2zm-14.68-16.6c-1.59-2.64-3.17-5.29-4.79-8a22 22 0 0 0 .18 2.34 7.29 7.29 0 0 0 4.62 5.65c1.07.54 2.14 1.08 3.23 1.59a.83.83 0 0 0 .59-.07 20.49 20.49 0 0 0 5.12-2.84c2.13-1.69 2.6-4.07 2.53-6.62a13.19 13.19 0 0 0-.95 1.62 33 33 0 0 1-3.45 5.85 1 1 0 0 1-.87.43h-3.29c-1.1 0-1.95.03-2.92.05zm-13.63-6.55a18.45 18.45 0 0 0 1.38 1.61c1.14 1 1.73 2.73 3.6 3l-1.12 1.35a5 5 0 0 1 1.2.81c1.17 1.38 2.32 2.76 3.32 4.2a3 3 0 0 1 .16 3.14l-.38.79c.33.17.6.32.88.43a22.3 22.3 0 0 0 15.86.36c.9-.32.9-.32.7-1.24a4.48 4.48 0 0 1 1.44-4.84 6.85 6.85 0 0 0 1.12-1.46 3.8 3.8 0 0 1 2.07-1.87l-1.42-1.7a3.06 3.06 0 0 0 2.39-1.54c.07-.09.16-.17.23-.25l2.44-2.78a3.67 3.67 0 0 0-2.78 1.27 15 15 0 0 0-1.15 1.1c-.2.26-.34.42-.67.35a.37.37 0 0 0-.28 0c-.46.5-1.06.35-1.62.38a.64.64 0 0 0-.3.08.91.91 0 0 1-1.2-.27c-.17-.24-.36-.47-.59-.78a7 7 0 0 1-2.5 3.69 23.91 23.91 0 0 1-5.4 2.93 1.16 1.16 0 0 1-.8 0c-.81-.35-1.58-.8-2.39-1.14-2.59-1.09-4.67-2.68-5.56-5.53l-.63.87a1 1 0 0 1-1.06.36c-.34-.07-.68-.12-1-.18a4.31 4.31 0 0 1-.61-.1c-.38-.12-.75-.28-1-.39-1.32-1.2-2.36-2.59-4.33-2.65zm26.77 14.45h.05v-1.85l.44 1.45h.08l-.12-1.62h.06l.54 1.41h.07c-.11-.81-.21-1.61-.32-2.41h.09l.75 2.47.18-.05-.39-1.93h.09l.57 1.62h.12c-.12-.85-.24-1.7-.37-2.55h.11L135 54c.46-.08.41-.31.29-.59a7.12 7.12 0 0 1-.58-3.38 2.2 2.2 0 0 1 1.44-2c-.09.14-.19.29-.29.46l.39.13-1.05.7.81.05-.81.62.13.15.65-.1-.79.67.7.05-.58.73h.82l-.54.36-.13.15a1.9 1.9 0 0 1 .35.21 1.73 1.73 0 0 0 1.32.16c1-1.05 1.76-2.46.61-4v-.1a2.13 2.13 0 0 1 .45 3 12.67 12.67 0 0 1-5.6 4.82 22.1 22.1 0 0 1-13.82 1.73 22.94 22.94 0 0 1-9.12-3.79 7 7 0 0 1-3-3.9 1.71 1.71 0 0 1 .53-2 .56.56 0 0 1 .2 0c-.06.17-.11.3-.17.45h.41l-.54.73.64-.05c-.16.2-.3.37-.5.64l.77-.16c-.2.25-.35.44-.56.72l1.09-.28-.92 1.09.83-.28-.21.39h.74l-.52.58.8.07c0 .33-.07.62-.1.9a5.49 5.49 0 0 0 .84-1.38 8 8 0 0 0 .46-1.59 2 2 0 0 0-1-2.12 1.58 1.58 0 0 1 1.28 1.25 4.48 4.48 0 0 1-.1 1.63 16.93 16.93 0 0 1-.69 1.92h.06l.54-.85h.09c-.15.45-.29.9-.44 1.34h.06l.76-1 .09.05-.38 1.16h.08l.94-1.25c-.08.44-.13.74-.19 1h.07l.42-.66h.07l-.2 1.23h.07l.5-.81h.06c-.06.33-.11.66-.19 1.15l.68-1.06c-.13.58-.23 1-.36 1.57.31-.44.54-.74.76-1.06l.09.05c0 .4-.09.8-.13 1.2a2.62 2.62 0 0 0 0-3.13 30 30 0 0 0-3-3.73c-1.41-1.43-3-1.38-4 .66-.1.2-.16.43-.26.63-.29.6-.57 1.21-.9 1.79s-.66 1-1 1.51a1.94 1.94 0 0 0 .41 2.77c.61.55 1.23 1.1 1.89 1.6a25.33 25.33 0 0 0 13.22 5.18 29.21 29.21 0 0 0 8.55-.45 26.56 26.56 0 0 0 10.19-4.32 6 6 0 0 0 2.31-2.67 1.41 1.41 0 0 0-.14-1.41 12.11 12.11 0 0 1-1.92-4.21 1.92 1.92 0 0 0-1.66-1.7 2.51 2.51 0 0 0-2.52 1c-.69.94-1.43 1.85-2.18 2.74a3.62 3.62 0 0 0-.94 1.94 4.82 4.82 0 0 0 .44 2.56v-1.71c.27.63.4 1.09.52 1.55zm-11.15-14.68h.12c.43-3.51.85-7 1.28-10.55h-8a1.57 1.57 0 0 0 0 .25v8.15a.66.66 0 0 0 .15.4c.85 1 1.72 2 2.58 3 .7.81 1.41 1.61 2.11 2.41-1-2.76-2.35-5.34-3.22-8.12a20.75 20.75 0 0 1 1.31 2c.41.65.83 1.29 1.27 1.93s.87 1.23 1.31 1.85l.13-.07c-1-3.38-2-6.78-2.66-10.24h.16zm4.64 3.52h.07l.18-.19c1.38-1.53 2.72-3.09 4.14-4.58a1.71 1.71 0 0 0 .55-1.34v-8h-8c.43 3.5.85 7 1.28 10.41h.15q1.68-4.52 3.38-9l.27.09-2.67 10.35.13.06 3.74-5.79.24.13zm-5.2-1.14l-.25.12-2.74-3.83a.33.33 0 0 0 0 .23c.8 1.71 1.62 3.42 2.41 5.13a3.48 3.48 0 0 1 .12.8 2.92 2.92 0 0 1-.61-.33Q117.79 43 116 41v.11c1.07 1.88 2.13 3.77 3.23 5.63a.85.85 0 0 0 .66.31h5.55a1 1 0 0 0 .74-.38c.8-1.22 1.56-2.46 2.3-3.72.38-.65.68-1.34 1-2a.5.5 0 0 0-.33.21q-1.65 1.89-3.31 3.77a2.89 2.89 0 0 1-.61.39l-.11-.15c.88-2 1.75-4 2.62-6-.87 1.15-1.64 2.34-2.43 3.52a4.36 4.36 0 0 1-.43.43l-.2-.11c.52-2.15 1.05-4.29 1.58-6.44h-.11c-.66 1.69-1.33 3.37-2 5.06h-.25c-.37-2.95-.75-5.89-1.12-8.84h-.1c-.37 2.93-.74 5.87-1.12 8.8h-.22a8.3 8.3 0 0 1-.41-.78q-.92-2.19-1.81-4.38a2.35 2.35 0 0 0-.18-.29c.43 2.35 1.44 4.49 1.74 6.86zm-6.78-.45a2.47 2.47 0 0 1-2.17-.88A7.63 7.63 0 0 0 111 41a10.6 10.6 0 0 0-4.3-2.53 1.18 1.18 0 0 1-.58-.64c-.55-1.21-1-2.46-1.59-3.66a1.66 1.66 0 0 0-2.15-1l.61 1.19a3.26 3.26 0 0 0-.7 0c-.32.08-.8.16-.88.37a1.37 1.37 0 0 0 .24 1 14.22 14.22 0 0 0 1 1.32 2.08 2.08 0 0 0 1.55 1 2.83 2.83 0 0 1 .9.39v.21l-1.47.27c.43.41.71.88 1.1 1s.8-.15 1.23-.26c0 .09 0 .23-.06.37a10.55 10.55 0 0 1 1.13-.3c.35 0 .48.12.28.44s-.34.45-.49.65c.35.22.7.4 1 .63a6.09 6.09 0 0 1 1.38 1.12 3.2 3.2 0 0 0 1.63 1.11 2.94 2.94 0 0 0 .64.19 2.28 2.28 0 0 0 2.43-1.37zm17.3-.06a.94.94 0 0 1 0 .16l.65.73a2.19 2.19 0 0 0 2.2.37 5.47 5.47 0 0 0 1.76-1.14 12.29 12.29 0 0 1 2.38-1.84l-.62-1a1.57 1.57 0 0 1 .41-.07c.39.08.77.19 1.17.29v-.49c.44.18.72.81 1.24.41a10.36 10.36 0 0 0 1-1l-1.39-.32v-.26c.35-.13.7-.26 1-.41a2.6 2.6 0 0 0 1-.44 17.48 17.48 0 0 0 1.62-2c.43-.61.17-1.06-.59-1.12h-.91l.65-1.2a1.7 1.7 0 0 0-2.08.8 13.68 13.68 0 0 0-1.69 3.81 1.32 1.32 0 0 1-.67.69c-.95.51-2 .91-2.89 1.44a9.93 9.93 0 0 0-1.52 1.24c-.78.68-1.42 1.59-2.72 1.3zM147.9 32a7 7 0 0 0-1-.66 2.88 2.88 0 0 1-1.92-1.6c-.17-.46-.58-.45-.93-.11a1.59 1.59 0 0 0-.34.39.88.88 0 0 1-.73.42 6.35 6.35 0 0 0-1.46.46c-.26.11-.31.38 0 .53a6.24 6.24 0 0 0 2 .88 25.63 25.63 0 0 0 3.71-.1 3.44 3.44 0 0 0 .67-.21zm-46 14.59l-.15-.2c1.4-.16 1.3-1.31 1.61-2.18.11-.3.19-.62.29-.93s.3-.82.49-1.34c-1.85 1.51-1.85 1.51-2.53 1.43l1.56-1.37-.77.11a1 1 0 0 0-.08-.14c.24-.25.48-.51.72-.75l-.28-.24.63-.61-.7-.23a17.73 17.73 0 0 0-1.55 4.53c-.14.73-.59 1.54.12 2.25v.24c.53-.23 1.23.11 1.59-.56zm-4.59-14.75l.09.28c.35 0 .7.1 1 .13s.77 0 1.14.09a5.36 5.36 0 0 0 4-.88c.29-.18.28-.44 0-.57a4.09 4.09 0 0 0-1.29-.43 1.22 1.22 0 0 1-1-.56c-.53-.71-1-.65-1.41.14a1.89 1.89 0 0 0-.09.21A1.16 1.16 0 0 1 99 31a10.52 10.52 0 0 0-1.69.84zM141.86 42c.35.28.64.48.89.71a7.44 7.44 0 0 1 .59.67l-.21.24-2.13-1.55c.29.92.62 1.87.88 2.84.17.63.31 1.21 1.06 1.37.1 0 .17.13.37.3h-1.08c.39.65 1.05.38 1.58.53 0-.12 0-.31.06-.33.5-.2.3-.57.24-.91v-.28a17.4 17.4 0 0 0-1.68-5.46l-.79.26c.82.4.87.51.44.81l.71.76-.09.14zm-29.78 20.33a1.34 1.34 0 0 1 0-.2L108 59.65a3.56 3.56 0 0 1-.65.49 5.85 5.85 0 0 1-1.45.42.66.66 0 0 1-.74-.65 3.14 3.14 0 0 1 .3-.84l.19.07a.72.72 0 0 1 0 .21c-.12.26-.33.59 0 .74a1.05 1.05 0 0 0 .87-.07 7.74 7.74 0 0 0 1.06-1.08h-.25c0-.14 0-.28-.07-.44l-.39.26v-.55l-.46.08v-.5l-1.2 1.21c-.63.7-.58 1 .24 1.54l3.65 2.19c.09 0 .19.08.28.12v-.08l-2.83-1.9 1.2-.67v.45l.58-.12-.21.48.79-.27-.25.52.94-.12-.22.56.68-.12c0 .2-.09.35-.13.53l1.16-.09c0 .12-.09.28-.18.58zm22.36 1.2a.38.38 0 0 1 0 .1 3.19 3.19 0 0 0 .77-.16c1.35-.67 2.7-1.37 4-2a.84.84 0 0 0 .46-1.2 13.55 13.55 0 0 0-1.14-1.62l-.15.11.78 1a.71.71 0 0 1-.09 1.11.84.84 0 0 1-1.19 0 9.14 9.14 0 0 1-.74-.77l-4.71 2.53c.24.26.46.48.76.81v-.58l.57.18c-.06-.24-.1-.42-.15-.66l.85.44c-.08-.24-.14-.4-.22-.63l.68.41c-.05-.23-.09-.39-.13-.58l.59.2-.15-.45.77.23-.28-.56.73.26c-.11-.22-.17-.34-.25-.52l.77.25-.23-.66 1.63.6a1.77 1.77 0 0 0 0 .23zm2.91-4.13l-.1.1a7.88 7.88 0 0 0 .9 1.15.77.77 0 0 0 .75 0 .76.76 0 0 0 .1-.65 7.07 7.07 0 0 0-.81-1.1h-.11c-.04 0 0 .22 0 .37l-.57-.3c.1.24.17.41.25.62zm6.06-21.8l-.84 1.13c.7.27.92-.07.84-1.13zm-40.81 1.17l-1-1.3c.05 1.21.21 1.44 1 1.3zM142 39h-.27c0 .27-.11.55-.16.82h.63c-.09-.3-.2-.58-.2-.82zm-38.6 0h-.27c-.06.27-.12.54-.17.82l.64-.05c-.07-.27-.13-.53-.2-.77z"/><path class="cls-9" d="M124.57 0c1.05.08 2.11.14 3.16.23 5.89.51 11.62 1.67 16.83 4.64a36.83 36.83 0 0 1 3.5 2.52c.37.28.38.56.05 1-.78.9-1.49 1.86-2.22 2.8a21.2 21.2 0 0 1 1.76 1.51 19.4 19.4 0 0 1 1.38 1.9l-3.65 1.83 2.62 3.23a5.58 5.58 0 0 1 .51.69.64.64 0 0 1-.6 1 7.52 7.52 0 0 1-1.44-.34c-.3-.09-.59-.23-1-.38.18.54.33 1 .49 1.46a.79.79 0 0 1-.27 1 .9.9 0 0 1-1.16-.19l-3.29-3.08c-.61-.56-1.23-1.11-1.82-1.69s-.55-.87.05-1.38 1-.76 1.49-1.16c-.8-.36-1.57-.7-2.33-1.06a4 4 0 0 1-.84-.5.82.82 0 0 1-.07-1.3c.41-.44.84-.85 1.37-1.38-11.16-3.92-22.2-3.67-33.27 0 .43.48.79.9 1.16 1.29.57.6.53 1.2-.2 1.6s-1.52.73-2.28 1.09l-.72.36 1.57 1.13a9.64 9.64 0 0 1 1.29-1.58c.61-.5 1.3-.24 1.89.23a4.57 4.57 0 0 1 3.4-3.73 8.6 8.6 0 0 1 2.82 0 5.09 5.09 0 0 1 3 1.73c.91 1.14.67 3.48-1.31 3.71-.14 0-.26.17-.37.28a6.64 6.64 0 0 1-.86.82.73.73 0 0 1-1.16-.61v-1l-1.45-.52a2.16 2.16 0 0 0-.91 2.35c.71-.9.93-.82 1.68.51a5 5 0 0 1 1.54.35 14 14 0 0 1 1.09 1.16 1.27 1.27 0 0 0-.06-.18c-.44-.89-.25-1.24.74-1.25a10.26 10.26 0 0 1 1.43.16c.4-.63.73-.8 1.2-.51a9.12 9.12 0 0 1 1.12.89 4 4 0 0 1-.53-1.34c0-.51.46-.85 1.09-.85-.14-.56.16-.82.58-1.08a5.21 5.21 0 0 0 .79-.77c.13-.13.28-.29.43-.3s.26.18.38.28a7.23 7.23 0 0 0 .59.53c.15.11.35.16.52.26.56.34.6.72.23 1.25.33 0 .82-.06 1.07.15.57.48.23 1.12 0 1.74.34-.13.62-.25.91-.34.86-.24 1-.11.87.82.42-.38.79-.73 1.17-1.06a3.74 3.74 0 0 1 .53-.35 3.81 3.81 0 0 1 .33.55c.05.11 0 .26.12.42.08-.2.18-.4.24-.6a1.64 1.64 0 0 1 1.46-1.15.64.64 0 0 1 .73.64 7.31 7.31 0 0 1 0 .83 1.65 1.65 0 0 0 .17-1.67 9.86 9.86 0 0 0-.62-1.42c-.23-.45-.44-1-.08-1.34s.73-.35 1.14-.53c-.18-.31-.6-.23-1-.19s-.62.42-.68.82a8 8 0 0 1-.15 1.31 3.37 3.37 0 0 1-.63 1.2c-.42.52-.76.49-1.25 0a.31.31 0 0 0-.09.07c-.55.82-.71.87-1.36.12a3.91 3.91 0 0 1-1.1-1.81 4.87 4.87 0 0 1 .61-3.22 3 3 0 0 1 2-1.2 6.64 6.64 0 0 1 5.25.82 2.35 2.35 0 0 1 1.18 1.57 4.49 4.49 0 0 1-.08 1.17 11.38 11.38 0 0 1 1.46-.58c.86-.23 1.5.33 2.11.79.39.29.18.82-.4 1.28a.22.22 0 0 0 0 .11c.39 1.08.19 1.32-.95 1.13a6 6 0 0 1-.67-.17l-.62.41a11.67 11.67 0 0 1 1.55.21.88.88 0 0 1 .72 1c0 .13.16.29.26.42a4.92 4.92 0 0 1 .77.89c.27.54 0 .9-.59.93h-1c.18.45.59.88.11 1.25a10 10 0 0 1 1.7 1.39 20.18 20.18 0 0 0 1.6 2.14c.56.54.41.93-.28 1.26.5 1.95.17 2.92-1.45 4.14a1 1 0 0 0-.39 1.35.64.64 0 0 1-.12.58.57.57 0 0 1-.55 0 9.11 9.11 0 0 1-.91-.94 2.73 2.73 0 0 1-3.26.09c-.55-.33-1-.74-1.62-1a2 2 0 0 1-1.16-1.79 14.47 14.47 0 0 1 .14-1.85c-1.22 1.12-2.8 1-4.39.73a2.81 2.81 0 0 1-.93-.43.69.69 0 0 1-.3-.84c.18-.78.29-1.58.43-2.37l-.25-.05-.71 2.69h-5.93c-.25-.88-.52-1.84-.8-2.81h-.26v1.57c.15 2.05-1.45 2.35-2.81 2.05a3.12 3.12 0 0 1-2.3-2.24 2.26 2.26 0 0 1-.1-.45c-.08-.92.24-1.21 1.1-1l.74-.71c-.06-.23-.13-.5-.21-.79a.92.92 0 0 0-.31.16 2.08 2.08 0 0 1-2.09.62 3 3 0 0 0-2.26 1.51c-.06.26.13.58.2.87-.93.12-1.29-.13-1.49-1.07-.88.45-1 .79-.4 1.55.12.16.24.49.16.6a.72.72 0 0 1-.62.29 7.34 7.34 0 0 1-1.23-.59c-.19.83 0 1.14.87 1.38.39.11.82.22.8.75s-.43.64-.83.73a2.8 2.8 0 0 0-.7.16l2.2.34c.06-.13.16-.34.29-.59-.55-.13-.93-.47-.82-1.06 0-.17.45-.28.63-.38-.14-.4-.32-.89-.54-1.49 1.08 0 2-.24 2.81.53a.54.54 0 0 0 .3.13 1.9 1.9 0 0 1 1.62 1.69 3.68 3.68 0 0 1-1 3.14 2.56 2.56 0 0 1-1.94.86 6.18 6.18 0 0 1-3.26-.49c-.26-.15-.49-.33-.75-.5-1 .9-1.49.93-2.3.07l.54-.33c.56-.39.56-.63.36-1.27a15.43 15.43 0 0 1-.37-2.07 2.75 2.75 0 0 1-.67.26.73.73 0 0 1-.61-.16.69.69 0 0 1 0-.63 7.52 7.52 0 0 1 .58-.71c.42-.58.82-1.17 1.24-1.76a4.53 4.53 0 0 1-.89-.68.8.8 0 0 1-.11-.67c0-.13.37-.16.58-.2a8.94 8.94 0 0 0 1.31-.24c.66-.25 1.28-.6 2-.93-.47-1 .79-.67 1-1.32l-.87.13c-.53.07-1.07.2-1.45-.38-.06-.11-.29-.15-.44-.15h-1.23l1-1.79a.64.64 0 0 1 .26-.3c.7-.31 1.41-.6 2.2-.93l-2.75-.79c-.7.67-1.38 1.3-2.06 1.94l-3.5 3.28c-.36.34-.77.58-1.24.29s-.39-.78-.24-1.24.29-.77.47-1.24c-.59.22-1.1.42-1.61.59a1.58 1.58 0 0 1-.73.12 1.13 1.13 0 0 1-.71-.36.87.87 0 0 1 .1-.78c.57-.8 1.21-1.54 1.82-2.31.39-.5.76-1 1.21-1.6l-3.61-1.65v-.11A7.57 7.57 0 0 1 99 11.2l-2.71-3.34a7.59 7.59 0 0 1 .78-.81A30.21 30.21 0 0 1 100 5c5.2-3 10.94-4.19 16.84-4.72 1.11-.1 2.22-.15 3.33-.23zm6.25 24.5l-1.26-.86a.8.8 0 0 1-.42 1.2l.58.51c-.11-.62 0-.81.61-.84h.51c.25.24.5.5.77.74a.65.65 0 0 0 .31.18c.49.1.6.44.53.86s-.17.64-.22.86l1.08-.17c.75-.51 1.54-.68 2-.32a1.35 1.35 0 0 1 .3 1.62c.23.26.56.46.59.71s-.2.56-.33.84a2.36 2.36 0 0 0 2.61-.88 6.57 6.57 0 0 1-1.37.18.91.91 0 0 1-.61-.57c-.05-.18.18-.49.35-.67a4.5 4.5 0 0 1 .64-.38 1.22 1.22 0 0 0 .31-1.91c-.68 1.37-1.14 1.66-1.82 1.34v-2.17c0-.29-.16-.49-.57-.48-1 0-1.93 0-2.92-.08-.14.63-.43.76-1.1.44a2.45 2.45 0 0 0-.57-.15zm12.72-11.43l4.1-5.22c-.43-.35-.79-.69-1.19-1A26.21 26.21 0 0 0 138.72 3 47.78 47.78 0 0 0 126.35.79a59.8 59.8 0 0 0-17.24 1.3 30.11 30.11 0 0 0-9.79 4c-.77.51-1.47 1.12-2.22 1.7l4.17 5.1c1.38-.67 2.66-1.38 4-1.93A42.74 42.74 0 0 1 119 8.07a50.5 50.5 0 0 1 14.5.93 29.92 29.92 0 0 1 10.04 4.07zm-35.94 6.57c-.75-.21-1-.11-1.23.4s-.27.73-.44 1.2c.5-.1 1.12 0 1.4-.31.51-.5 1-.25 1.49-.18a1.75 1.75 0 0 0-1.68.7c.33.5.79.35 1.2.22a4 4 0 0 1 2.11.26l-2 .91v.23a3.16 3.16 0 0 0 1 .11 10.93 10.93 0 0 0 1.48-.6 13 13 0 0 1 1-.35l.09.24c-.94.33-1.88.68-2.83 1-.55.18-1.12.26-1.65.46-1 .35-1.76 1.15-3 .85a1.38 1.38 0 0 0 .41.54c.69.49.92-.47 1.4-.51a6.22 6.22 0 0 0-.91 1.34 5.22 5.22 0 0 1-1.28 1.95 5.74 5.74 0 0 0-.51.68 1.15 1.15 0 0 0 .14.17 7.94 7.94 0 0 0 .81-.31c.25-.12.49-.28.79-.46-.39 2.06-.12 3.08 1 3.76a2.63 2.63 0 0 0 2.38.13l-1.1-.14a4.26 4.26 0 0 1 .88-.37c.17-.07.28-.26.41-.4a2.3 2.3 0 0 0-.52-.26 12.36 12.36 0 0 1-1.36-.19 1 1 0 0 1-.74-1.26c.29.16.57.43.85.43a3 3 0 0 0 1-.34c-.24-.17-.46-.45-.71-.49a1 1 0 0 1-.89-.77 3.57 3.57 0 0 1 .36-2.62 5.93 5.93 0 0 1 .53-.81c-.59 1.47-.62 1.9 0 2.44.28.27.59.49 1 .23-.83-1.4-.46-2.35 1-2.5 0 .47-.16 1 .29 1.17l.83-1.56-.2-.09a3.4 3.4 0 0 0 2.35-1.23 1.78 1.78 0 0 1 1.61-.7 2.19 2.19 0 0 0-1.72 1.22 1.6 1.6 0 0 0 1.48-.2 7.47 7.47 0 0 1 1.68-.82 2.64 2.64 0 0 1 .89 0v.17l-1.46.71c1.08.91 1.63-.25 2.39-.4-.33.45-.69.82-1 1.21-.13.15-.29.46-.23.54.36.46.07.86 0 1.3 0 .2 0 .55.1.62a1 1 0 0 0 .68 0c.16 0 .29-.18.43-.28.68-.5.64-1.26.76-2a4.11 4.11 0 0 1 1.28-2.68 5 5 0 0 1 3.91-1 3.4 3.4 0 0 1 3.11 2.86 7.45 7.45 0 0 1-.19 3.42.68.68 0 0 0 .47.94 5.91 5.91 0 0 0 2.89.23 2.4 2.4 0 0 0 2.22-1.95 1.2 1.2 0 0 0 0-.7c0-.07-.38 0-.6 0-.19-.88-.57-1.12-1.39-.87l.48 1.07-.15.11-.82-.36v1.1c0 .86-.3 1.18-1.23 1.25.83-.22.93-.86 1-1.56.11-.86-.31-1.27-1.12-1.55a2.09 2.09 0 0 1 .75-.51c.42-.14.42-.37.19-.64a7.78 7.78 0 0 0-.8-.67 2.3 2.3 0 0 1 .71 0c.84.35 1.65.75 2.48 1.11a1.7 1.7 0 0 0 .51.05l-.2-.45-.27-.59a6.09 6.09 0 0 0 4 .59c-.5-1.08-1.74-.77-2.5-1.42a2.57 2.57 0 0 1 1.09-.21c.53 0 1.07.15 1.44-.34l-1.13-1a1.63 1.63 0 0 1 1.66.37c.44.34.88.68 1.34 1 .1.06.27 0 .41 0a1 1 0 0 0 0-.42c-.19-.31-.42-.6-.7-1 .59.05 1.05.12 1.5.13a2.42 2.42 0 0 0 .62-.18c-.09-.23-.11-.53-.27-.67a7.63 7.63 0 0 0-1.1-.7c.35-.31.41-.63 0-.93a1.88 1.88 0 0 0-2 .08c-.44.31-.93.56-1.39.83.17-1.23 1.08-1.64 2-2l-.34-.49c.81-.07 1.39.87 2.19.34 0-.64-.45-.9-1-1.07a4.21 4.21 0 0 0 .82-.06 2.08 2.08 0 0 0 .56-.48c-.16-.18-.31-.36-.48-.53s-.19 0-.27-.09a1.75 1.75 0 0 0-2.57.62c-.32.56-.6 1.16-.9 1.73-.13.26-.28.5-.41.75.34-1.67.1-2.78-.72-3.18v1.53a8.58 8.58 0 0 0-.31-1.06c-.26-.57-.8-.86-1.13-.61s-.23.75 0 1.18a13.8 13.8 0 0 1 .75 2.16 1.47 1.47 0 0 1-1.26 1.84c0-.45.12-.88.14-1.31s-.19-.6-.61-.45a1.23 1.23 0 0 0-1 .93 1.67 1.67 0 0 1-1 1.38v-1.64l-1.92 1.59v-1.26l-1.27.67-.45.19a1.42 1.42 0 0 1-.13-.51c0-.3.22-.59.24-.89a1 1 0 0 0-.17-.72c-.09-.09-.46 0-.67.1-.39.16-.76.38-1.19.61-.13-.57.19-.75.44-1 .72-.65.66-.92-.24-1.31a6 6 0 0 1-.91-.59c-.33.26-.75.62-1.2.95s-.38.45 0 .71a3.86 3.86 0 0 1 .66.55.55.55 0 0 1 0 .47c0 .08-.3.14-.4.09a1.92 1.92 0 0 1-.71-.54c-.27-.38-.49-.27-.74 0s-.19.49 0 .77.51.9.76 1.35l-.2.19c-.29-.18-.6-.34-.88-.55s-.55-.53-.87-.72a.58.58 0 0 0-.58.09c-.1.11 0 .39 0 .6 0 0 .1.06.14.09a1.19 1.19 0 0 1 .13.18 3.66 3.66 0 0 0-3-.4L117 21a.8.8 0 0 1-.18 0 1.94 1.94 0 0 1-1.77-1c-.39-.62-.76-.74-1.25-.47l.45.79-.13.08a3.82 3.82 0 0 1-1.33-1.71c-.06-.17-.27-.28-.42-.41a3.47 3.47 0 0 0-.34.42 5.11 5.11 0 0 0-.28.68h-.16a3.52 3.52 0 0 1-.22-.49 2.76 2.76 0 0 1 .75-2.86c.18-.18.38-.51.33-.71a.82.82 0 0 0-1.39-.56 2.66 2.66 0 0 0-1 1.09c-.71 1.92-.46 3.16 1.19 4.27a3 3 0 0 0 .86.46c1.15.34 2.32.66 3.49.94.69.17 1.39.26 2.09.38a.37.37 0 0 1-.37.16 36.24 36.24 0 0 1-4.3-1 33.18 33.18 0 0 1-4-1.93c-.85-.33-1.16-.28-1.42.51zm25.68 9.94h.17c0 1.29.24 2.51 1.62 3a2.38 2.38 0 0 0 2.88-.84 1.82 1.82 0 0 0 1.12 1.6c-.6-1.11-.08-1.66.66-2.28a4.32 4.32 0 0 0 1.17-1.72 1.79 1.79 0 0 0-.51-2.07c-.07.61-.16 1.26-.24 1.9h-.11v-2.46a5.93 5.93 0 0 0 .64.22 3.37 3.37 0 0 0 .63 0c-.08-.2-.1-.48-.24-.6a5 5 0 0 1-1.4-1.88 1.41 1.41 0 0 0-.4-.48c-1.55-1.34-3.41-1.37-5.29-1.29 2.09.74 2.43 1.32 2.31 4 1-.21 1.22-.79.9-2.05.22.16.41.28.58.43a1.63 1.63 0 0 1-.28 2.84 3.25 3.25 0 0 0-.45.25c-.1.08-.23.23-.22.33a.44.44 0 0 0 .29.3 1.71 1.71 0 0 0 .78-.07c.42-.16.82-.39 1.23-.59.27 1.09-1.07 2-3.21 2.15.24.55.77.47 1.34.56-.87.57-1.63.19-2.4.06a1.28 1.28 0 0 0 0 .28c.06.19.13.38.21.6a.9.9 0 0 1-.26-1.35c.25-.38.61-.69.9-1.05s.26-.54-.25-.63c-.29-.05-.58-.07-1-.12a2.46 2.46 0 0 1 .51-.37c.47-.17.56-.45.39-.9a.71.71 0 0 0-1-.49c-.44.13-.82.33-.82.89a1.38 1.38 0 0 1-.17.45.84.84 0 0 1-.24-.53c0-.39-.22-.5-.52-.23-1.06.95-.9 3.28.21 3.75-.06-.4-.11-.79-.16-1.18.31.63.3 1.39 1 1.81zm-17-12.71a1.55 1.55 0 0 0 1.49-1 2.52 2.52 0 0 0-1.82-3.2l.21.53c-.41-.45-.7-1-1.44-1.07l.35.57-1.43-.78-.13.18.46.28c-1-.34-2-.62-3 .13l1 .11c-2.85.67-4 3.09-2.37 5.33 0-.38.08-.72.12-1.06a2.5 2.5 0 0 1 1.55-2.36.86.86 0 0 1 1.27.47 3.61 3.61 0 0 0 .54.94c.22.19.7.38.88.27s.35-.58.45-.9c0-.14-.09-.33-.14-.5h.21a7 7 0 0 1 .15 1.11 8 8 0 0 1-.18 1.19c-.06.38-.2.91.25 1 .3.05.73-.31 1-.59a1.72 1.72 0 0 0 .26-.79 4 4 0 0 0 0-.6h.13c.03.2.1.46.17.74zm12.72-.73a3.79 3.79 0 0 0 .12.62 4.9 4.9 0 0 0 .34.69c.23-.15.58-.25.66-.46a7 7 0 0 0 .48-1.85c.11-1.16 1-1.76 2-1.25a3.15 3.15 0 0 1 1.08.91 11.85 11.85 0 0 1 .83 1.53c.5-1.31-.06-2.28-1.87-3.22 1.4.09 1.95.8 2.33 2.92a7.62 7.62 0 0 0-.2-1.79c-.44-1.56-2.22-2-3.64-1.82a4 4 0 0 0-2.75 1.78 3 3 0 0 1 2.55-1.93 3.72 3.72 0 0 1 4.21 1.84 3.69 3.69 0 0 0-.77-1.29 6.13 6.13 0 0 0-6.34-.7 2.1 2.1 0 0 0-1.11 1.47 15.57 15.57 0 0 0-.25 2 3.5 3.5 0 0 0 .25 1c.22-.34.32-.51.42-.68-.37.95.21 1.41.94 2zm-4 9.09c.5-.24.91-.44 1.31-.66.06 0 .08-.21.07-.31a3 3 0 0 0-2.33-2.74 6.27 6.27 0 0 0-2.28-.1 3.57 3.57 0 0 0-3 2.62c-.09.32-.08.52.34.61a3.16 3.16 0 0 1 1 .56.46.46 0 0 1 .09.34 3.14 3.14 0 0 1-.16.53c.61 0 .73-.1.63-.5a1 1 0 0 1 .08-.65.69.69 0 0 1 .49 0 2 2 0 0 1 0 .65v.24l.66.1c-.1-.33-.28-.61-.24-.86a1.37 1.37 0 0 1 .44-.73.68.68 0 0 1 1 0 1.4 1.4 0 0 1 .45.72 2.56 2.56 0 0 1-.31.89l.79-.1c-.11-.21-.19-.31-.19-.4s0-.42.11-.51a.52.52 0 0 1 .51 0 .94.94 0 0 1 .13.55c0 .16-.12.43-.05.48a1.9 1.9 0 0 0 .61.2c-.04-.4-.09-.69-.15-.93zM106.79 13.5v-.31a4.44 4.44 0 0 0-1.18-.15c-1.31.18-2.6.44-3.91.63a.77.77 0 0 1-.61-.22c-.53-.57-1-1.18-1.52-1.77a6.1 6.1 0 0 0-2.73 2.65l4.82 2.38A8.7 8.7 0 0 1 103 15.4c.9-.53 1.89-.92 2.84-1.39.34-.15.64-.34.95-.51zM143 16.81l5-2.5a6.81 6.81 0 0 0-2.75-2.65c-.51.6-1 1.21-1.53 1.79a.8.8 0 0 1-.6.22c-1.31-.19-2.61-.44-3.91-.64a1.12 1.12 0 0 0-1.25.44c.32.18.59.37.89.52.85.4 1.72.76 2.56 1.18a2.64 2.64 0 0 1 1.59 1.64zm-3.39.65l5.62 5.24.2-.13c-.36-1-.72-2.08-1.1-3.15l3.48 1.47.12-.21-3.33-4.23c-1.47.94-3.15.92-4.97 1.01zm-42.7 3.22l.13.2 3.46-1.46-1.08 3.15.22.11 5.59-5.22c-1.82-.09-3.5-.08-5-1zm10.18 11.86a4.67 4.67 0 0 0 1.12.48 16 16 0 0 0 2.58.15 3 3 0 0 0 1.26-.46c1-.59.89-1.68 1-2.62a2.51 2.51 0 0 0-.21-1.28.76.76 0 0 0-.87-.57c.07.38.14.73.21 1.07-.68-1.66-1.31-2-2.88-1.7 0 .85.85.88 1.25 1.36-.46.63-1-.14-1.51.21 0 .59.43.55.83.58 1 0 1.35.69.9 1.65a2.6 2.6 0 0 0-.29-.65 2.67 2.67 0 0 0-.6-.42 2 2 0 0 0-.18.68c.15.81-.07 1.2-.9 1.35-.48.09-1.01.1-1.71.17zm8.44-6.83a2 2 0 0 0 .12-.49 3.34 3.34 0 0 0-.1-.62 1.72 1.72 0 0 0-.58.27 2.56 2.56 0 0 0-.34.62l-.77-.3c0 .31-.22.67-.12.91a9.48 9.48 0 0 0 .93 1.64c.12.18.38.26.65.42l-.65-1.32c.79 1.4 1.62 1.87 2.71 1.42a1.44 1.44 0 0 0 .75-1.9 4.46 4.46 0 0 1-.88.69 1.15 1.15 0 0 1-.91 0c-.16-.1-.15-.54-.16-.83a4 4 0 0 1 .11-.7zm-7.27-9.15a2.34 2.34 0 0 0-1.87-.3c-.36.11-.62.36-.46.78s.5.29.81.14a1.32 1.32 0 0 1 1.56.13c-1-.18-1.23-.14-1.57.36a4.27 4.27 0 0 0 .74.13 1.76 1.76 0 0 1 1.66 1c.19.38.64.61 1 .92-.53-1.23-1-2.38-1.54-3.52a1.71 1.71 0 0 0-.53-.66 1 1 0 0 0-1.54.47c.6.06 1.29-.08 1.74.55zM105 32.73c.59.31 1 .18 1.34-.48l-.53-.45zm36.91 2.03c-.28.9-.52 1.81-.86 2.68-.08.2-.47.27-.72.4 0-.24-.17-.52-.1-.73a5.81 5.81 0 0 1 1.42-2.43l.26.08m1.77-3.64a1.75 1.75 0 0 1 1.77 0zm-44.01 0c.55-.48 1.18-.17 1.79 0z"/><path class="cls-9" d="M128.48 22.41a1.49 1.49 0 0 1 .39-.1h1.73a2.46 2.46 0 0 0 2-.9 4.54 4.54 0 0 1 2.91-1.41l-2.12 1.17a1 1 0 0 0-.31.25c-1.13 1.57-2.79 1.26-4.37 1.25a.28.28 0 0 1-.15-.06s0-.06-.08-.18m-11.08.17c-2.22.12-4.1-.93-6.13-1.37v-.19l6.09 1.56m13.56-2.14l-.32.6 1.62-.48c-1 .78-4.11 1.47-4.57 1a4.49 4.49 0 0 0 3.27-1.07m-8.17-.99V17a3.62 3.62 0 0 1 .17 2.53h-.17M111 23.22c-.67 1-1.83.8-2.53 1.47 0-.07-.07-.14-.11-.2l2.64-1.27m10.86-3.08l-.86-1.43.12-.13a4 4 0 0 1 .71.72 2.11 2.11 0 0 1 0 .84m2.82-1.72c-.16.53-.32 1-.51 1.64a1.28 1.28 0 0 1 .51-1.64m-5.58 2.86l-1.68-.82.06-.13 1.73.72-.11.23M139.3 27a3.72 3.72 0 0 0-3.4-3.56c-.16 0-.3-.16-.58-.32 2.07 0 4.56 1.64 4 3.88"/><path class="cls-9" d="M136.19 23c1.6-.16 3.34 1 3.53 2.36a5 5 0 0 0-3.53-2.36m-31.52-9.3L102 15.22a4.49 4.49 0 0 1 2.68-1.52m-2.54.36l-1.34 1a1 1 0 0 0-.13-.16l1.34-1c0 .07.09.13.13.19m-4.2-.71l1.21-1.15L98 13.48zm.49.33l1.23-1a1.15 1.15 0 0 1 .14.17l-1.23 1c0-.05-.09-.11-.14-.17m44.43 1.5l-2.58-1.46.12-.2L143 15a1.28 1.28 0 0 1-.11.2m2.31-2.54l1.26 1.05-.15.18-1.24-1.05.13-.18m-2.36 1.23l1.38 1-.13.18-1.37-1 .12-.17m2.87-1.69l1.29 1.16-.16.17-1.23-1.17zm-4.36 5.46L143 19.5l-.17.15-1.63-1.83.19-.15m4.26 1.04l-1.3-1.52.16-.14 1.34 1.52-.2.14m-3.18-.99c.29.37.58.75.86 1.13l-.18.14-.85-1.12.17-.15m1.19-.36l.86 1.14-.18.13-.89-1.17.21-.1m-41.76 2.13l1.63-1.83.16.14-1.61 1.85-.18-.16m-1.4-2.29c-.43.51-.87 1-1.31 1.51l-.19-.14 1.31-1.52.17.15m2.19.5l-1 1.3-.19-.13 1-1.3.19.13m-.74.07l-.85 1.07-.17-.13.84-1.08.18.14m-.53-.29l-.89 1.14-.18-.13.9-1.15.17.14m10.36 11.95c.82.91.45 2.63-.41 2.86a5.14 5.14 0 0 0 .59-1.32 6.24 6.24 0 0 0-.18-1.54"/><path d="M136.92 56.61l-.66-.44.21.76zm1.06.23l-.35.25-.41-.27-.66.46.13.47-.35.25-.52-2.09.35-.25zm-3.46.76l.27-.14a2.4 2.4 0 0 0 .31-.19.18.18 0 0 0 .06-.13.21.21 0 0 0 0-.15.27.27 0 0 0-.13-.13.2.2 0 0 0-.17 0l-.26.13-.28.14zm.18 1.21l-.93-1.81.75-.39a1.5 1.5 0 0 1 .44-.17.39.39 0 0 1 .3.06.58.58 0 0 1 .28.63.65.65 0 0 1-.26.35.76.76 0 0 1 .27.05 1.94 1.94 0 0 1 .35.18l.4.23-.43.23-.46-.26a2.18 2.18 0 0 0-.33-.16.34.34 0 0 0-.14 0 .59.59 0 0 0-.2.07h-.07l.39.74zm-1.73.7l-.72-1.87 1.39-.53.12.31-1 .39.16.42.94-.36.12.31-.94.36.19.51 1.05-.4.12.32zm-1.62.55l-.62-1.9.38-.12.52 1.57 1-.32.11.32zm-.78.2l-.52-1.94.39-.11.53 1.94zm-2.4-1.51l.4-.09.24 1.06a1.16 1.16 0 0 0 .09.33.33.33 0 0 0 .16.17.4.4 0 0 0 .27 0 .45.45 0 0 0 .24-.12.25.25 0 0 0 .06-.2 2 2 0 0 0 0-.33l-.25-1.09.4-.09.23 1a3.07 3.07 0 0 1 .08.51.6.6 0 0 1-.06.27.57.57 0 0 1-.2.21.87.87 0 0 1-.36.15 1.17 1.17 0 0 1-.44 0 .57.57 0 0 1-.26-.12.47.47 0 0 1-.16-.19 2.66 2.66 0 0 1-.15-.49zm-.5 1.63a.62.62 0 0 0 .08-.24 1 1 0 0 0-.22-.8.47.47 0 0 0-.42-.11.48.48 0 0 0-.37.22.76.76 0 0 0-.09.54.81.81 0 0 0 .22.5.52.52 0 0 0 .41.12.43.43 0 0 0 .16 0 1.14 1.14 0 0 0-.26-.09l.08-.25a1.39 1.39 0 0 1 .41.11zm.35.18a1.4 1.4 0 0 0 .34.13l-.11.3a.61.61 0 0 1-.18-.05l-.3-.14a1.1 1.1 0 0 1-.42.14 1 1 0 0 1-.75-.17 1.27 1.27 0 0 1-.2-1.53 1 1 0 0 1 .67-.36.93.93 0 0 1 .74.18 1.13 1.13 0 0 1 .36.73 1.4 1.4 0 0 1 0 .46 1.06 1.06 0 0 1-.17.31zm-3.43.64l-.18-2 1.48-.13v.34l-1.08.1v.44l1-.09v.34l-1 .09v.54l1.12-.1v.34zm-1.27 0v-1.64h-.59v-.34h1.59v.34h-.59v1.67zm-2-.83l-.25-.75-.3.73zm.71.82h-.44l-.15-.47h-.81l-.18.45H120l.85-2h.43zm-2.6-.16l.16-2h.41l-.16 2zm-1.28-2.37h-.17v-.05a.41.41 0 0 1 .1-.21.25.25 0 0 1 .19 0h.09l.14.08.16.07h.08a.36.36 0 0 0 0-.09h.17a.39.39 0 0 1-.1.26.2.2 0 0 1-.18.06h-.09l-.15-.08a.38.38 0 0 0-.18-.07.08.08 0 0 0-.07 0 .19.19 0 0 0-.04.06zm-.71 2.12l.25-2h.39l.65 1.43.17-1.33h.37L119 61h-.4l-.65-1.41-.16 1.31zm-.77-1l-.11-.79-.43.67zm.55.93l-.42-.09-.08-.48-.78-.18-.26.41-.42-.09 1.19-1.79.42.09zm-2.54-2.33l-.15.55.21.06a1 1 0 0 0 .32.05.2.2 0 0 0 .15-.06.22.22 0 0 0 .08-.14.25.25 0 0 0 0-.19.27.27 0 0 0-.13-.13l-.28-.09zm-.83 1.51l.53-1.94.62.17a2.17 2.17 0 0 1 .46.15.56.56 0 0 1 .23.27.63.63 0 0 1 0 .41.58.58 0 0 1-.15.28.51.51 0 0 1-.21.15.63.63 0 0 1-.23 0 1.61 1.61 0 0 1-.41-.08l-.26-.07-.2.73zm-2.2-.82l.73-1.87.57.22-.16 1.41.83-1.15.57.22-.73 1.87-.35-.13.57-1.48-.94 1.33-.37-.14.21-1.62-.58 1.53zm-1.18-1.69a.79.79 0 0 0-.11.53.57.57 0 0 0 .71.38.8.8 0 0 0 .38-.39.74.74 0 0 0 .11-.53.5.5 0 0 0-.28-.34.5.5 0 0 0-.43 0 .76.76 0 0 0-.43.4zm-.38-.19a1.58 1.58 0 0 1 .32-.41.85.85 0 0 1 .3-.15.68.68 0 0 1 .31 0 1 1 0 0 1 .42.13.92.92 0 0 1 .5.58 1.07 1.07 0 0 1-.12.8 1 1 0 0 1-.59.55.94.94 0 0 1-.76-.09 1 1 0 0 1-.5-.57 1.07 1.07 0 0 1 .03-.79zm-.64-.08l.27.3a.91.91 0 0 1-.51.27.85.85 0 0 1-.54-.14.87.87 0 0 1-.42-.58 1.25 1.25 0 0 1 .8-1.3.86.86 0 0 1 .72.12.75.75 0 0 1 .38.92l-.39-.13a.48.48 0 0 0 0-.29.4.4 0 0 0-.19-.22.45.45 0 0 0-.39 0 .78.78 0 0 0-.39.37.85.85 0 0 0-.17.53.51.51 0 0 0 .22.33.45.45 0 0 0 .3.05.59.59 0 0 0 .26-.18z" fill="#414042"/><path class="cls-9" d="M141.23 7.88a1.09 1.09 0 0 0-.07.83.83.83 0 0 0 .49.5.82.82 0 0 0 .7 0 1.2 1.2 0 0 0 .57-.66 1.5 1.5 0 0 0 .13-.6.87.87 0 0 0-.15-.46 1 1 0 0 0-.38-.31.89.89 0 0 0-.7 0 1.23 1.23 0 0 0-.59.71m-2.84-1.49l.68.24a1.36 1.36 0 0 0 .39.08.27.27 0 0 0 .19-.06.31.31 0 0 0 .11-.16.3.3 0 0 0 0-.26.7.7 0 0 0-.36-.24l-.78-.27zm-3.19-1l.7.2a1.31 1.31 0 0 0 .39 0 .24.24 0 0 0 .18-.07.28.28 0 0 0 .11-.17.28.28 0 0 0 0-.26.61.61 0 0 0-.35-.2l-.8-.22zM120 5.2h.5a1.31 1.31 0 0 0 .44-.07.53.53 0 0 0 .2-.13.9.9 0 0 0 .18-.35 2.06 2.06 0 0 0 0-.56 1.38 1.38 0 0 0-.17-.66.63.63 0 0 0-.33-.27 1.3 1.3 0 0 0-.48 0h-.49zm-3.86-.56l.57-.07-.33-.57-.07-.12v.08zm-5.87.66l.71-.17a1.16 1.16 0 0 0 .37-.13.28.28 0 0 0 .12-.16.31.31 0 0 0 0-.19.27.27 0 0 0-.16-.21.58.58 0 0 0-.41 0l-.81.18zm-8.93 3.21l.59-.26a.78.78 0 0 0 .38-.29.34.34 0 0 0 0-.31.33.33 0 0 0-.16-.19.28.28 0 0 0-.2 0 1.24 1.24 0 0 0-.32.12l-.63.22zm39.18-.94a2 2 0 0 1 1-1.07 1.66 1.66 0 0 1 1.33 0 1.74 1.74 0 0 1 .72.57 1.58 1.58 0 0 1 .3.84 2.19 2.19 0 0 1-.18.94 2 2 0 0 1-.57.78 1.51 1.51 0 0 1-.83.35 1.75 1.75 0 0 1-1.6-.71 1.49 1.49 0 0 1-.29-.84 2 2 0 0 1 .1-.86zM132.31 4l-.12.61 1.71.39-.14.71-1.76-.35-.14.71 1.91.39-.14.71-2.63-.54.69-3.46 2.6.52-.14.71zm-2.46 2.4l.59-3.4.77.14-.6 3.47zm-2.17-2.54l1.28.17.17-1.3.77.1-.46 3.5-.77-.1.2-1.48-1.28-.17-.2 1.48-.76-.1.45-3.5.77.1zm-4.39-.84v.63h1.75v.73h-1.75v.73h1.94v.73l-2.73-.07.1-3.53 2.65.07v.72zm-4 2.92l-.19-3.53 1.27-.07a3 3 0 0 1 .6 0 1.27 1.27 0 0 1 .56.24 1.5 1.5 0 0 1 .46.59 2.45 2.45 0 0 1 .18.81 2.28 2.28 0 0 1-.06.69 1.63 1.63 0 0 1-.21.53 1.34 1.34 0 0 1-.32.35 1.38 1.38 0 0 1-.42.21 2.63 2.63 0 0 1-.55.09zM117 5.22l-1 .14-.22 1-.82.1.92-3.66.69-.09L118.38 6l-.86.1zM113.27 4l-1 .19-.13-.71 2.82-.54.13.71-1 .2.53 2.76-.76.14zm-1.46 1.58a2.2 2.2 0 0 1 .41.33l1 .94-.92.21-.62-.61-.38-.35a.76.76 0 0 0-.2-.13.4.4 0 0 0-.15 0h-.2l-.3.07.32 1.38-.76.17-.79-3.44 1.55-.35a2.12 2.12 0 0 1 .71-.07.85.85 0 0 1 .52.27 1.06 1.06 0 0 1 .28.52 1 1 0 0 1-.1.73 1 1 0 0 1-.37.28zm-4.72 0l.18.6 1.68-.5.21.7-1.68.5.21.7 1.86-.56.21.7-2.61.77-1-3.38 2.53-.76.21.7zm-2.23 0l.73-.27.7 1.88a2.32 2.32 0 0 1 .18.82 1.1 1.1 0 0 1-.24.67 1.58 1.58 0 0 1-.71.48 1.68 1.68 0 0 1-.83.12 1.08 1.08 0 0 1-.64-.33 2.27 2.27 0 0 1-.42-.76l-.71-1.89.73-.27.7 1.89a2 2 0 0 0 .25.48.42.42 0 0 0 .25.14.82.82 0 0 0 .38 0 .77.77 0 0 0 .44-.33 1.22 1.22 0 0 0-.1-.7zm-3.24 3.7l.52 1.18-.7.31L100 7.45l1.26-.56a2.78 2.78 0 0 1 .48-.18 1.2 1.2 0 0 1 .5 0 .89.89 0 0 1 .43.22 1.12 1.12 0 0 1 .32.42 1.16 1.16 0 0 1 0 .86 1.45 1.45 0 0 1-.83.74zM137 8l1.13-3.18 1.49.54a1.86 1.86 0 0 1 .64.33.88.88 0 0 1 .29.5 1.09 1.09 0 0 1-.05.59 1 1 0 0 1-.48.56 1 1 0 0 1-.44.1 2.27 2.27 0 0 1 .17.5l.3 1.31-.89-.31-.2-.86a2.83 2.83 0 0 0-.13-.5.88.88 0 0 0-.1-.22.52.52 0 0 0-.11-.1l-.18-.08-.29-.1-.47 1.33-.68-.28-.81-.24-.3-.89a4.75 4.75 0 0 0-.17-.49 1.13 1.13 0 0 0-.12-.21.31.31 0 0 0-.11-.09 1.34 1.34 0 0 0-.18-.07L135 6.1l-.39 1.36-.74-.21 1-3.4 1.52.43a2 2 0 0 1 .66.29.84.84 0 0 1 .32.48 1.08 1.08 0 0 1 0 .59 1 1 0 0 1-.45.59 1.09 1.09 0 0 1-.43.14 2.55 2.55 0 0 1 .2.48z"/></g></g></g></svg>