<svg xmlns="http://www.w3.org/2000/svg" viewBox="0 0 231.62 165.44"><g data-name="Capa 2"><g data-name="Capa 1"><path d="M74.3 44.73c0-7.2-3.68-11-10.65-11-5.27 0-10.53 2.35-15.61 7S40.32 50.2 40.32 55c0 4.08 2.64 4.69 4.22 4.69 2.91 0 4.51-1.57 4.51-4.4a3.15 3.15 0 0 0-3.44-3.49 4.42 4.42 0 0 0-2.41.82c.38-3.16 2.73-6.63 7-10.34 4.73-4.08 9.17-6.14 13.22-6.14a8.24 8.24 0 0 1 5.84 2 6.9 6.9 0 0 1 2.14 5.37c0 4.53-2.26 9.43-6.72 14.55C57.28 66.64 48.74 71 39.31 71c-4.93 0-8.85-1.26-11.67-3.74s-4.21-5.81-4.21-10.14c0-6.34 2.61-13 7.75-19.9.61 0 1.29.07 2 .07a82.15 82.15 0 0 0 22.89-3.82c8.23-2.47 14.86-5.36 19.79-8.68a15.47 15.47 0 0 1 3 8.64c0 2 .78 2.43 1.44 2.43.38 0 1.59-.15 1.59-2 0-3.26-1.31-6.82-3.9-10.59 2.9-2.27 4.3-4.46 4.3-6.7 0-3.69-3.7-5.56-11-5.56a34.56 34.56 0 0 0-6 .52C53.56 4.39 41.84.79 30.39.79 22.07.79 15 2.54 9.42 6S.79 14 .79 19.29c0 8.61 7.26 14.36 21.6 17.1-3.65 5.5-5.52 11-5.52 16.25a19.52 19.52 0 0 0 6.44 14.8 22.35 22.35 0 0 0 15.8 6 37.65 37.65 0 0 0 24.22-8.86c7.28-5.91 11-12.58 11-19.83M46.82 22.61a61.86 61.86 0 0 1 18.11-8.27 37.29 37.29 0 0 1 9.55 8.42C69.59 26 63 28.81 54.89 31.11a90 90 0 0 1-21.73 3.64 61.5 61.5 0 0 1 13.66-12.14zm-34.88-13A35.85 35.85 0 0 1 30.49 4.9a67.44 67.44 0 0 1 30.75 7.36c-16.51 3.86-29.07 11.24-37.4 22-13-2.21-19.61-6.93-19.61-14 .01-4.04 2.61-7.6 7.71-10.64zm67.86 6.93c0 1.29-1.1 2.92-3.22 4.74a40.34 40.34 0 0 0-8-7.54 28.08 28.08 0 0 1 3.9-.33c4.85 0 7.32 1.05 7.32 3.13zM71.36 63.5a9.18 9.18 0 0 0 2 6.07 6.59 6.59 0 0 0 5.2 2.48 8.91 8.91 0 0 0 5.82-2.57 45.7 45.7 0 0 0 4.89-5.34 10.18 10.18 0 0 0-.08 1.22 6.79 6.79 0 0 0 1.71 4.75 5.74 5.74 0 0 0 4.45 1.94c2.59 0 5.9-2.34 10.12-7.14.27-.27.5-.55.75-.82a6.76 6.76 0 0 0-.12 1.3 6.28 6.28 0 0 0 2.05 4.72 7 7 0 0 0 5 1.94 10 10 0 0 0 6.3-2.48 46.29 46.29 0 0 0 6.91-7.5 4.9 4.9 0 0 0 3.75 1.77c1.88 0 3.93-.89 6.2-2.7a12.22 12.22 0 0 0-.22 2.35 9.18 9.18 0 0 0 2 6.07 6.6 6.6 0 0 0 5.19 2.48 8.91 8.91 0 0 0 5.83-2.57 46.09 46.09 0 0 0 4.89-5.34 9.41 9.41 0 0 0-.08 1.22 6.88 6.88 0 0 0 1.7 4.75 5.78 5.78 0 0 0 4.47 1.94c2.58 0 5.9-2.34 10.14-7.14C178 56.36 178 55.54 178 55a1.09 1.09 0 0 0-1.13-1.11 1.71 1.71 0 0 0-1.26.82 81.21 81.21 0 0 1-9.07 10.78c-3.7 3.63-5.33 4.18-6 4.18s-1.15-.11-1.15-1.45c0-.79.59-3.07 4.58-9.36L173 44.73l-.83-1.27a24.3 24.3 0 0 1-3.45.33 11.48 11.48 0 0 1-2.52-.32l-.62-.14-1.15 2.06c-.47-1.5-1.78-2.32-3.82-2.32-2.62 0-6 1.1-10.19 3.27-5.49 2.83-9.45 6-11.77 9.32-3.42 3.91-6.29 5.9-8.54 5.9-1 0-3.05-.51-2.36-1.28 5.2-5.74 8-10.9 8.37-15a1.94 1.94 0 0 0-2.12-2.19c-2.1 0-4.15 1.65-6.26 5a18 18 0 0 0-3 9.45 9.23 9.23 0 0 0 .36 2.37 59.51 59.51 0 0 1-7.1 7.78 7.37 7.37 0 0 1-4.62 2c-1.73 0-1.86-.75-1.86-1.45 0-.86.59-2.81 3.38-7.16l10.71-16.32-.87-1.27a14.22 14.22 0 0 1-2.86.23c-.53 0-1.64-.08-3.28-.24h-.51l-6.88 10.86a3.13 3.13 0 0 0-.35.42 82.07 82.07 0 0 1-9.07 10.79c-3.7 3.63-5.33 4.18-6 4.18s-1.16-.11-1.16-1.45c0-.79.59-3.07 4.59-9.36l9-14.14-.83-1.27a24.17 24.17 0 0 1-3.45.33 11.88 11.88 0 0 1-2.53-.32l-.61-.14-1.14 2.06c-.47-1.5-1.79-2.32-3.81-2.32-2.63 0-6.06 1.1-10.22 3.27C76.18 51.25 71.36 57 71.36 63.5M97.48 47c0 1.4-1.21 4.61-6.94 11.93-7 8.88-10.17 10.74-11.58 10.74s-2.13-.67-2.13-2.3c0-3.35 2.5-7.89 7.43-13.51s8.88-8.4 11.74-8.4c1.08 0 1.48.42 1.48 1.54zm64.75 0c0 1.41-1.21 4.61-6.94 11.93-7.36 9.34-10.41 10.74-11.59 10.74-1.5 0-2.13-.67-2.13-2.3 0-3.35 2.51-7.89 7.44-13.51s8.88-8.41 11.74-8.41c1.08.01 1.48.43 1.48 1.55zm62.84 91.59c-.54 0-1.11.36-1.86 1.21a24.56 24.56 0 0 1-7.1 6.15c-3.74 2.24-6.89 3-9.36 2.27 5.68-6.66 8.46-12.27 8.46-17.13 0-3-1.25-6.62-7.25-6.62-4.77 0-10.63 2.12-17.9 6.48a46.17 46.17 0 0 0-10.54 8.2 13.44 13.44 0 0 0-1.28 1.11c-4.38 5.21-8.44 7.85-12.06 7.85-2.67 0-3.87-1.37-3.87-4.47a14 14 0 0 1 .9-4.26l.64-.44.68-.35 4.23-2.21c9.69-5.26 10.82-7.87 10.82-9.38 0-.77-.31-2.53-3.16-2.53-2.46 0-5.13 1.3-8.12 4a32.32 32.32 0 0 0-7.17 9.44c-.79.55-1.58 1.15-2.4 1.78 1.75-3.06 2.61-5.67 2.61-7.89 0-6.05-3.7-7.32-6.8-7.32-1.93 0-5.72 1.37-16.27 13.23l-1.27 1.52a1.82 1.82 0 0 0-.52.85v.22a1.2 1.2 0 0 0 1 1.2h.17a2.43 2.43 0 0 0 1.82-1.19c8.89-10.95 12.83-13.25 14.56-13.25.61 0 .87.13.87.94 0 1.25-1.56 4.9-9 15.15l-12.27 16.76.73 1.32c3.77-.24 4.42-.26 4.5-.26.25 0 1.16 0 4.57.26h.47l.27-.38c4.64-6.72 8.16-11.5 10.15-13.81a42 42 0 0 1 5.57-5.23 11.69 11.69 0 0 0-.27 2.3c0 4.18 2.25 6.38 6.52 6.38 2.84 0 5.84-1.2 8.95-3.57a13.15 13.15 0 0 0-.45 3.43 10.93 10.93 0 0 0 3.42 8.06 11.38 11.38 0 0 0 8.26 3.36c5.87 0 12.18-3.92 18.78-11.64a11.59 11.59 0 0 0 3.84.59c3.89 0 8.14-1.93 12.63-5.74 4.35-3.63 4.72-4.68 4.72-5.37a1.06 1.06 0 0 0-1.11-1.07m-33.23-.93c6.33-7.1 11.7-10.7 16-10.7 3.21 0 4.62 1.32 4.62 4.26a9.76 9.76 0 0 1-.54 3.3 2.37 2.37 0 0 0-1.45-.46c-2.11 0-4.18 1.16-6.31 3.54s-3.12 4.68-3.12 6.93a6.18 6.18 0 0 0 1.87 4.22c-6 6.85-11.55 10.34-16.52 10.34-2.83 0-4.1-1.08-4.1-3.51-.15-4.76 3.08-10.77 9.44-17.87zM143 109.17a26.8 26.8 0 0 0-2-9.94 24.65 24.65 0 0 0 1.16-6.83 13.94 13.94 0 0 0-6.54-12c-4.22-2.89-9.92-4.36-16.94-4.36a82.41 82.41 0 0 0-23.51 4 101.17 101.17 0 0 0-23.4 10.28 76.24 76.24 0 0 0-23.26 21c-5.76 8.12-8.68 16.24-8.68 24.12 0 8.65 3 15.77 8.82 21.16s13.55 8.11 22.88 8.11c7 0 14.84-1.55 23.27-4.62a99.09 99.09 0 0 0 23.62-12.5 67.71 67.71 0 0 0 18-18.28c4.35-6.77 6.56-13.53 6.56-20.09m-94.84 32.23c0-9.57 3.74-19.4 11.11-29.2A84.38 84.38 0 0 1 86.56 88.7c11.52-6.33 23.07-9.53 34.34-9.53 5.55 0 10.09 1.27 13.48 3.75a11.29 11.29 0 0 1 5 9.62 13.24 13.24 0 0 1-.3 2.82 19.65 19.65 0 0 0-8.13-7A32.7 32.7 0 0 0 116 85c-12.83 0-25.82 5.21-38.6 15.47s-19.31 20.84-19.31 31.3a16.24 16.24 0 0 0 4.52 11.71 15.28 15.28 0 0 0 11.34 4.71 14.06 14.06 0 0 0 8.44-2.63c2.48-1.8 3.75-4 3.75-6.48 0-3.48-2-5.31-5.61-5.31a7 7 0 0 0-4.65 1.64 5.31 5.31 0 0 0-2 4.23c0 2.77 1.54 4.3 4.34 4.3a7.84 7.84 0 0 0 1.62-.15c-.21.12-.46.26-.75.39a11.14 11.14 0 0 1-4.81 1.19 10.2 10.2 0 0 1-8.05-3.4 13.07 13.07 0 0 1-3.08-9.07c0-9.62 6-19.65 18-29.84s23.75-15.39 35-15.39c6 0 10.79 1.48 14.24 4.43s5.11 6.73 5.17 11.66c-3.47 5.93-9.19 10.8-17 14.47-.91.45-1.66.88-1.66 1.63a1.31 1.31 0 0 0 1.44 1.33c1.12 0 3.31-.55 9.36-5.3a58.61 58.61 0 0 0 7.27-6.6c-2.33 11.9-9.95 23.45-22.7 34.39-13.88 11.92-27.85 17.95-41.53 17.95-6.63 0-12.1-1.9-16.29-5.64a18.51 18.51 0 0 1-6.31-14.54zm134.56-37.79c1.3 0 3-1.08 5.14-3.38v.19a3.09 3.09 0 0 0 .89 2.28 3.13 3.13 0 0 0 2.3.9c1.43 0 3.39-1.33 6-4.07a4 4 0 0 0 1.38 2.84 4.84 4.84 0 0 0 3.35 1.22c2.69 0 5.77-1.85 9.43-5.65l1.08-1.15c.52-.56.6-.73.6-1a.66.66 0 0 0-.51-.66h-.13a1.32 1.32 0 0 0-.93.54c-3.75 4.26-6.91 6.42-9.4 6.42-1.58 0-1.8-.66-1.8-1.29a5.92 5.92 0 0 1 1.47-3.17 35.48 35.48 0 0 0 7.89-2c1.8-.82 2.71-1.87 2.71-3.13a1.9 1.9 0 0 0-.89-1.58 3.19 3.19 0 0 0-1.87-.56 14.47 14.47 0 0 0-5.69 1.6c-3 1.39-5 3-6 4.72-4 4.77-5.78 5.48-6.48 5.48-.46 0-.48-.16-.48-.41s.23-1.11 2.42-4.24c1.72-2.48 6-8.26 12-16.29l-.48-.88-1.54.09a5.8 5.8 0 0 1-1.5-.2l-.38-.1-8 11.29c-.21-.53-.74-1-2-1-1.66 0-3.92.79-6.75 2.35-3.64 2-5.49 4.33-5.49 6.89a4 4 0 0 0 1.07 2.83 3.52 3.52 0 0 0 2.65 1.15m2.84-8.12c3-3 4.7-3.67 5.63-3.67.63 0 .68.25.68.58s-.33 1.37-2.52 4c-4.13 5-5.87 5.75-6.54 5.75s-.84-.24-.84-.89c-.01-1.41 1.16-3.34 3.53-5.8zm21.78-1.34a19.81 19.81 0 0 1-4.3 1.74 22.14 22.14 0 0 1 3-2.66 6.44 6.44 0 0 1 3.21-1.47c.25 0 .33.06.35.13-.05.35-.36 1.12-2.32 2.24z" fill="none" stroke-miterlimit="10" stroke="#9e804d" stroke-width="1.57"/><path d="M74.3 44.73c0-7.2-3.68-11-10.65-11-5.27 0-10.53 2.35-15.61 7S40.32 50.2 40.32 55c0 4.08 2.64 4.69 4.22 4.69 2.91 0 4.51-1.57 4.51-4.4a3.15 3.15 0 0 0-3.44-3.49 4.42 4.42 0 0 0-2.41.82c.38-3.16 2.73-6.63 7-10.34 4.73-4.08 9.17-6.14 13.22-6.14a8.24 8.24 0 0 1 5.84 2 6.9 6.9 0 0 1 2.14 5.37c0 4.53-2.26 9.43-6.72 14.55C57.28 66.64 48.74 71 39.31 71c-4.93 0-8.85-1.26-11.67-3.74s-4.21-5.81-4.21-10.14c0-6.34 2.61-13 7.75-19.9.61 0 1.29.07 2 .07a82.15 82.15 0 0 0 22.89-3.82c8.23-2.47 14.86-5.36 19.79-8.68a15.47 15.47 0 0 1 3 8.64c0 2 .78 2.43 1.44 2.43.38 0 1.59-.15 1.59-2 0-3.26-1.31-6.82-3.9-10.59 2.9-2.27 4.3-4.46 4.3-6.7 0-3.69-3.7-5.56-11-5.56a34.56 34.56 0 0 0-6 .52C53.56 4.39 41.84.79 30.39.79 22.07.79 15 2.54 9.42 6S.79 14 .79 19.29c0 8.61 7.26 14.36 21.6 17.1-3.65 5.5-5.52 11-5.52 16.25a19.52 19.52 0 0 0 6.44 14.8 22.35 22.35 0 0 0 15.8 6 37.65 37.65 0 0 0 24.22-8.86c7.28-5.91 11-12.58 11-19.83M46.82 22.61a61.86 61.86 0 0 1 18.11-8.27 37.29 37.29 0 0 1 9.55 8.42C69.59 26 63 28.81 54.89 31.11a90 90 0 0 1-21.73 3.64 61.5 61.5 0 0 1 13.66-12.14zm-34.88-13A35.85 35.85 0 0 1 30.49 4.9a67.44 67.44 0 0 1 30.75 7.36c-16.51 3.86-29.07 11.24-37.4 22-13-2.21-19.61-6.93-19.61-14 .01-4.04 2.61-7.6 7.71-10.64zm67.86 6.93c0 1.29-1.1 2.92-3.22 4.74a40.34 40.34 0 0 0-8-7.54 28.08 28.08 0 0 1 3.9-.33c4.85 0 7.32 1.05 7.32 3.13zM71.36 63.5a9.18 9.18 0 0 0 2 6.07 6.59 6.59 0 0 0 5.2 2.48 8.91 8.91 0 0 0 5.82-2.57 45.7 45.7 0 0 0 4.89-5.34 10.18 10.18 0 0 0-.08 1.22 6.79 6.79 0 0 0 1.71 4.75 5.74 5.74 0 0 0 4.45 1.94c2.59 0 5.9-2.34 10.12-7.14.27-.27.5-.55.75-.82a6.76 6.76 0 0 0-.12 1.3 6.28 6.28 0 0 0 2.05 4.72 7 7 0 0 0 5 1.94 10 10 0 0 0 6.3-2.48 46.29 46.29 0 0 0 6.91-7.5 4.9 4.9 0 0 0 3.75 1.77c1.88 0 3.93-.89 6.2-2.7a12.22 12.22 0 0 0-.22 2.35 9.18 9.18 0 0 0 2 6.07 6.6 6.6 0 0 0 5.19 2.48 8.91 8.91 0 0 0 5.83-2.57 46.09 46.09 0 0 0 4.89-5.34 9.41 9.41 0 0 0-.08 1.22 6.88 6.88 0 0 0 1.7 4.75 5.78 5.78 0 0 0 4.47 1.94c2.58 0 5.9-2.34 10.14-7.14C178 56.36 178 55.54 178 55a1.09 1.09 0 0 0-1.13-1.11 1.71 1.71 0 0 0-1.26.82 81.21 81.21 0 0 1-9.07 10.78c-3.7 3.63-5.33 4.18-6 4.18s-1.15-.11-1.15-1.45c0-.79.59-3.07 4.58-9.36L173 44.73l-.83-1.27a24.3 24.3 0 0 1-3.45.33 11.48 11.48 0 0 1-2.52-.32l-.62-.14-1.15 2.06c-.47-1.5-1.78-2.32-3.82-2.32-2.62 0-6 1.1-10.19 3.27-5.49 2.83-9.45 6-11.77 9.32-3.42 3.91-6.29 5.9-8.54 5.9-1 0-3.05-.51-2.36-1.28 5.2-5.74 8-10.9 8.37-15a1.94 1.94 0 0 0-2.12-2.19c-2.1 0-4.15 1.65-6.26 5a18 18 0 0 0-3 9.45 9.23 9.23 0 0 0 .36 2.37 59.51 59.51 0 0 1-7.1 7.78 7.37 7.37 0 0 1-4.62 2c-1.73 0-1.86-.75-1.86-1.45 0-.86.59-2.81 3.38-7.16l10.71-16.32-.87-1.27a14.22 14.22 0 0 1-2.86.23c-.53 0-1.64-.08-3.28-.24h-.51l-6.88 10.86a3.13 3.13 0 0 0-.35.42 82.07 82.07 0 0 1-9.07 10.79c-3.7 3.63-5.33 4.18-6 4.18s-1.16-.11-1.16-1.45c0-.79.59-3.07 4.59-9.36l9-14.14-.83-1.27a24.17 24.17 0 0 1-3.45.33 11.88 11.88 0 0 1-2.53-.32l-.61-.14-1.14 2.06c-.47-1.5-1.79-2.32-3.81-2.32-2.63 0-6.06 1.1-10.22 3.27C76.18 51.25 71.36 57 71.36 63.5M97.48 47c0 1.4-1.21 4.61-6.94 11.93-7 8.88-10.17 10.74-11.58 10.74s-2.13-.67-2.13-2.3c0-3.35 2.5-7.89 7.43-13.51s8.88-8.4 11.74-8.4c1.08 0 1.48.42 1.48 1.54zm64.75 0c0 1.41-1.21 4.61-6.94 11.93-7.36 9.34-10.41 10.74-11.59 10.74-1.5 0-2.13-.67-2.13-2.3 0-3.35 2.51-7.89 7.44-13.51s8.88-8.41 11.74-8.41c1.08.01 1.48.43 1.48 1.55zm62.84 91.59c-.54 0-1.11.36-1.86 1.21a24.56 24.56 0 0 1-7.1 6.15c-3.74 2.24-6.89 3-9.36 2.27 5.68-6.66 8.46-12.27 8.46-17.13 0-3-1.25-6.62-7.25-6.62-4.77 0-10.63 2.12-17.9 6.48a46.17 46.17 0 0 0-10.54 8.2 13.44 13.44 0 0 0-1.28 1.11c-4.38 5.21-8.44 7.85-12.06 7.85-2.67 0-3.87-1.37-3.87-4.47a14 14 0 0 1 .9-4.26l.64-.44.68-.35 4.23-2.21c9.69-5.26 10.82-7.87 10.82-9.38 0-.77-.31-2.53-3.16-2.53-2.46 0-5.13 1.3-8.12 4a32.32 32.32 0 0 0-7.17 9.44c-.79.55-1.58 1.15-2.4 1.78 1.75-3.06 2.61-5.67 2.61-7.89 0-6.05-3.7-7.32-6.8-7.32-1.93 0-5.72 1.37-16.27 13.23l-1.27 1.52a1.82 1.82 0 0 0-.52.85v.22a1.2 1.2 0 0 0 1 1.2h.17a2.43 2.43 0 0 0 1.82-1.19c8.89-10.95 12.83-13.25 14.56-13.25.61 0 .87.13.87.94 0 1.25-1.56 4.9-9 15.15l-12.27 16.76.73 1.32c3.77-.24 4.42-.26 4.5-.26.25 0 1.16 0 4.57.26h.47l.27-.38c4.64-6.72 8.16-11.5 10.15-13.81a42 42 0 0 1 5.57-5.23 11.69 11.69 0 0 0-.27 2.3c0 4.18 2.25 6.38 6.52 6.38 2.84 0 5.84-1.2 8.95-3.57a13.15 13.15 0 0 0-.45 3.43 10.93 10.93 0 0 0 3.42 8.06 11.38 11.38 0 0 0 8.26 3.36c5.87 0 12.18-3.92 18.78-11.64a11.59 11.59 0 0 0 3.84.59c3.89 0 8.14-1.93 12.63-5.74 4.35-3.63 4.72-4.68 4.72-5.37a1.06 1.06 0 0 0-1.11-1.07m-33.23-.93c6.33-7.1 11.7-10.7 16-10.7 3.21 0 4.62 1.32 4.62 4.26a9.76 9.76 0 0 1-.54 3.3 2.37 2.37 0 0 0-1.45-.46c-2.11 0-4.18 1.16-6.31 3.54s-3.12 4.68-3.12 6.93a6.18 6.18 0 0 0 1.87 4.22c-6 6.85-11.55 10.34-16.52 10.34-2.83 0-4.1-1.08-4.1-3.51-.15-4.76 3.08-10.77 9.44-17.87zM143 109.17a26.8 26.8 0 0 0-2-9.94 24.65 24.65 0 0 0 1.16-6.83 13.94 13.94 0 0 0-6.54-12c-4.22-2.89-9.92-4.36-16.94-4.36a82.41 82.41 0 0 0-23.51 4 101.17 101.17 0 0 0-23.4 10.28 76.24 76.24 0 0 0-23.26 21c-5.76 8.12-8.68 16.24-8.68 24.12 0 8.65 3 15.77 8.82 21.16s13.55 8.11 22.88 8.11c7 0 14.84-1.55 23.27-4.62a99.09 99.09 0 0 0 23.62-12.5 67.71 67.71 0 0 0 18-18.28c4.35-6.77 6.56-13.53 6.56-20.09m-94.84 32.23c0-9.57 3.74-19.4 11.11-29.2A84.38 84.38 0 0 1 86.56 88.7c11.52-6.33 23.07-9.53 34.34-9.53 5.55 0 10.09 1.27 13.48 3.75a11.29 11.29 0 0 1 5 9.62 13.24 13.24 0 0 1-.3 2.82 19.65 19.65 0 0 0-8.13-7A32.7 32.7 0 0 0 116 85c-12.83 0-25.82 5.21-38.6 15.47s-19.31 20.84-19.31 31.3a16.24 16.24 0 0 0 4.52 11.71 15.28 15.28 0 0 0 11.34 4.71 14.06 14.06 0 0 0 8.44-2.63c2.48-1.8 3.75-4 3.75-6.48 0-3.48-2-5.31-5.61-5.31a7 7 0 0 0-4.65 1.64 5.31 5.31 0 0 0-2 4.23c0 2.77 1.54 4.3 4.34 4.3a7.84 7.84 0 0 0 1.62-.15c-.21.12-.46.26-.75.39a11.14 11.14 0 0 1-4.81 1.19 10.2 10.2 0 0 1-8.05-3.4 13.07 13.07 0 0 1-3.08-9.07c0-9.62 6-19.65 18-29.84s23.75-15.39 35-15.39c6 0 10.79 1.48 14.24 4.43s5.11 6.73 5.17 11.66c-3.47 5.93-9.19 10.8-17 14.47-.91.45-1.66.88-1.66 1.63a1.31 1.31 0 0 0 1.44 1.33c1.12 0 3.31-.55 9.36-5.3a58.61 58.61 0 0 0 7.27-6.6c-2.33 11.9-9.95 23.45-22.7 34.39-13.88 11.92-27.85 17.95-41.53 17.95-6.63 0-12.1-1.9-16.29-5.64a18.51 18.51 0 0 1-6.31-14.54zm134.56-37.79c1.3 0 3-1.08 5.14-3.38v.19a3.09 3.09 0 0 0 .89 2.28 3.13 3.13 0 0 0 2.3.9c1.43 0 3.39-1.33 6-4.07a4 4 0 0 0 1.38 2.84 4.84 4.84 0 0 0 3.35 1.22c2.69 0 5.77-1.85 9.43-5.65l1.08-1.15c.52-.56.6-.73.6-1a.66.66 0 0 0-.51-.66h-.13a1.32 1.32 0 0 0-.93.54c-3.75 4.26-6.91 6.42-9.4 6.42-1.58 0-1.8-.66-1.8-1.29a5.92 5.92 0 0 1 1.47-3.17 35.48 35.48 0 0 0 7.89-2c1.8-.82 2.71-1.87 2.71-3.13a1.9 1.9 0 0 0-.89-1.58 3.19 3.19 0 0 0-1.87-.56 14.47 14.47 0 0 0-5.69 1.6c-3 1.39-5 3-6 4.72-4 4.77-5.78 5.48-6.48 5.48-.46 0-.48-.16-.48-.41s.23-1.11 2.42-4.24c1.72-2.48 6-8.26 12-16.29l-.48-.88-1.54.09a5.8 5.8 0 0 1-1.5-.2l-.38-.1-8 11.29c-.21-.53-.74-1-2-1-1.66 0-3.92.79-6.75 2.35-3.64 2-5.49 4.33-5.49 6.89a4 4 0 0 0 1.07 2.83 3.52 3.52 0 0 0 2.65 1.15m2.84-8.12c3-3 4.7-3.67 5.63-3.67.63 0 .68.25.68.58s-.33 1.37-2.52 4c-4.13 5-5.87 5.75-6.54 5.75s-.84-.24-.84-.89c-.01-1.41 1.16-3.34 3.53-5.8zm21.78-1.34a19.81 19.81 0 0 1-4.3 1.74 22.14 22.14 0 0 1 3-2.66 6.44 6.44 0 0 1 3.21-1.47c.25 0 .33.06.35.13-.05.35-.36 1.12-2.32 2.24z"/><circle cx="227.99" cy="151.85" r="3.32" stroke="#000" stroke-width=".61" fill="none" stroke-miterlimit="10"/><path d="M226.64 149.89a6.65 6.65 0 0 1 1.11-.08 2 2 0 0 1 1.3.33 1 1 0 0 1 .35.77 1.08 1.08 0 0 1-.85 1 1 1 0 0 1 .66.82 5.94 5.94 0 0 0 .35 1.11H229a4.8 4.8 0 0 1-.3-1c-.13-.56-.37-.77-.9-.79h-.55v1.75h-.58zm.58 1.84h.59c.62 0 1-.31 1-.77s-.42-.75-1-.76a2.64 2.64 0 0 0-.57 0z"/></g></g></svg>