<svg xmlns="http://www.w3.org/2000/svg" viewBox="0 0 91.62 66.55"><defs><style>.cls-2{fill:#6d6e71}</style></defs><g id="Capa_2" data-name="Capa 2"><g id="Capa_1-2" data-name="Capa 1"><path d="M29.39 18c0-2.89-1.45-4.43-4.21-4.43a9.14 9.14 0 0 0-6.18 2.8c-2 1.88-3 3.82-3 5.76 0 1.64 1 1.87 1.62 1.87a1.61 1.61 0 0 0 1.79-1.77A1.26 1.26 0 0 0 18 20.84a1.73 1.73 0 0 0-1 .33c.15-1.27 1.08-2.67 2.77-4.16 1.87-1.64 3.63-2.47 5.23-2.47a3.22 3.22 0 0 1 2.31.81 2.8 2.8 0 0 1 .85 2.16c0 1.82-.89 3.79-2.66 5.85-2.93 3.44-6.31 5.19-10 5.19A6.7 6.7 0 0 1 10.93 27a5.15 5.15 0 0 1-1.66-4 13.7 13.7 0 0 1 3.07-8h.81a32 32 0 0 0 9.06-1.54A28.5 28.5 0 0 0 30 10a6.29 6.29 0 0 1 1.18 3.48c0 .81.31 1 .57 1s.63-.06.63-.82a7.76 7.76 0 0 0-1.54-4.26 3.62 3.62 0 0 0 1.7-2.69c0-1.49-1.46-2.24-4.36-2.24a13.45 13.45 0 0 0-2.38.21A26.16 26.16 0 0 0 12 .31 15.43 15.43 0 0 0 3.73 2.4C1.46 3.82.31 5.62.31 7.76c0 3.46 2.87 5.78 8.54 6.88a12 12 0 0 0-2.18 6.54 7.91 7.91 0 0 0 2.55 6 8.76 8.76 0 0 0 6.25 2.41A14.74 14.74 0 0 0 25 26c2.88-2.38 4.34-5.06 4.34-8M18.52 9.09a24.27 24.27 0 0 1 7.16-3.33 14.83 14.83 0 0 1 3.78 3.39 27.87 27.87 0 0 1-7.75 3.36A35.07 35.07 0 0 1 13.12 14a24.47 24.47 0 0 1 5.4-4.91zM4.73 3.87A14 14 0 0 1 12.06 2a26.31 26.31 0 0 1 12.16 3C17.7 6.48 12.73 9.45 9.43 13.76 4.29 12.88 1.68 11 1.68 8.12c0-1.6 1.03-3.03 3.05-4.25zm26.83 2.78c0 .52-.44 1.18-1.27 1.91a16.07 16.07 0 0 0-3.18-3 10.93 10.93 0 0 1 1.54-.13c1.94-.04 2.91.39 2.91 1.22zm-3.33 18.89A3.73 3.73 0 0 0 29 28a2.59 2.59 0 0 0 2.05 1 3.5 3.5 0 0 0 2.3-1 18.27 18.27 0 0 0 1.93-2.15 4.16 4.16 0 0 0 0 .49 2.76 2.76 0 0 0 .72 1.87 2.25 2.25 0 0 0 1.76.78c1 0 2.33-.94 4-2.87l.3-.33a2.77 2.77 0 0 0 0 .52 2.55 2.55 0 0 0 .81 1.9 2.72 2.72 0 0 0 2 .78 3.91 3.91 0 0 0 2.49-1A18.5 18.5 0 0 0 50 25a1.92 1.92 0 0 0 1.48.71 4 4 0 0 0 2.45-1.09 5 5 0 0 0-.09.95 3.73 3.73 0 0 0 .8 2.43 2.59 2.59 0 0 0 2.05 1A3.49 3.49 0 0 0 59 28a18.43 18.43 0 0 0 1.93-2.15 3.85 3.85 0 0 0 0 .49 2.8 2.8 0 0 0 .67 1.91 2.27 2.27 0 0 0 1.77.78c1 0 2.33-.94 4-2.87 3-3.45 3-3.78 3-4a.43.43 0 0 0-.45-.45.68.68 0 0 0-.5.33 32.54 32.54 0 0 1-3.59 4.34C64.4 27.81 63.75 28 63.5 28s-.5 0-.5-.55c0-.32.24-1.23 1.81-3.76L68.44 18l-.33-.51a9.46 9.46 0 0 1-1.37.13 4.47 4.47 0 0 1-1-.13l-.25-.06-.45.83a1.4 1.4 0 0 0-1.51-.93 9.25 9.25 0 0 0-4 1.32 12.55 12.55 0 0 0-4.66 3.75c-1.35 1.57-2.49 2.37-3.38 2.37-.41 0-1.21-.21-.93-.51 2.06-2.31 3.16-4.39 3.31-6a.78.78 0 0 0-.83-.9c-.83 0-1.64.66-2.48 2a7.33 7.33 0 0 0-1.18 3.8 3.77 3.77 0 0 0 .14 1 23.78 23.78 0 0 1-2.83 3.12 2.89 2.89 0 0 1-1.83.8c-.68 0-.74-.3-.74-.58s.23-1.13 1.34-2.88L49.68 18l-.34-.51a5.53 5.53 0 0 1-1.13.09c-.21 0-.65 0-1.3-.1h-.2L44 21.84a1.25 1.25 0 0 0-.14.17 32.88 32.88 0 0 1-3.59 4.34C38.79 27.81 38.15 28 37.89 28s-.46 0-.46-.58c0-.32.24-1.23 1.82-3.76L42.83 18l-.33-.51a9.4 9.4 0 0 1-1.36.13 4.62 4.62 0 0 1-1-.13l-.24-.06-.45.83a1.4 1.4 0 0 0-1.51-.93 9.26 9.26 0 0 0-4 1.32c-3.76 2-5.67 4.29-5.67 6.9m10.33-6.64c0 .56-.48 1.86-2.74 4.8-2.76 3.57-4 4.32-4.58 4.32s-.84-.27-.84-.93c0-1.35 1-3.17 2.94-5.43s3.51-3.38 4.64-3.38c.38-.01.54.16.54.62zm25.61 0c0 .57-.48 1.86-2.75 4.8C58.51 27.46 57.3 28 56.84 28s-.84-.24-.84-.9c0-1.35 1-3.17 2.94-5.43s3.51-3.38 4.64-3.38c.42-.01.59.16.59.62zM89 55.75c-.22 0-.44.15-.73.49a9.76 9.76 0 0 1-2.81 2.47 4.79 4.79 0 0 1-3.7.91c2.25-2.68 3.34-4.93 3.34-6.89 0-1.22-.49-2.66-2.87-2.66-1.89 0-4.2.85-7.08 2.61A18.31 18.31 0 0 0 71 56a5.34 5.34 0 0 0-.51.45c-1.73 2.1-3.34 3.16-4.77 3.16-1.06 0-1.53-.55-1.53-1.8a5.73 5.73 0 0 1 .36-1.71l.25-.18.27-.14 1.67-.89c3.85-2.14 4.26-3.19 4.26-3.8 0-.31-.12-1-1.25-1a5 5 0 0 0-3.21 1.61 13 13 0 0 0-2.83 3.8c-.31.22-.63.46-.95.72a6.71 6.71 0 0 0 1-3.17c0-2.44-1.46-2.95-2.69-2.95-.76 0-2.26.55-6.44 5.32l-.51.61a.73.73 0 0 0-.2.34v.09a.48.48 0 0 0 .38.48h.07a1 1 0 0 0 .72-.48c3.52-4.4 5.07-5.33 5.76-5.33.24 0 .34.05.34.38 0 .5-.62 2-3.57 6.09l-4.85 6.74.29.53 1.78-.11c.1 0 .46 0 1.81.1h.18l.11-.15c1.84-2.71 3.23-4.63 4-5.56a16.73 16.73 0 0 1 2.2-2.11 4.78 4.78 0 0 0-.11.92 2.3 2.3 0 0 0 2.58 2.57 5.86 5.86 0 0 0 3.54-1.44A5.38 5.38 0 0 0 69 60.5a4.62 4.62 0 0 0 4.62 4.6c2.32 0 4.82-1.58 7.43-4.68a4.51 4.51 0 0 0 1.52.24 8 8 0 0 0 5-2.31c1.72-1.46 1.87-1.88 1.87-2.16a.42.42 0 0 0-.44-.43m-13.14-.38c2.5-2.86 4.63-4.31 6.31-4.31 1.27 0 1.83.53 1.83 1.72a4 4 0 0 1-.21 1.33.93.93 0 0 0-.57-.19 3.44 3.44 0 0 0-2.5 1.42 4.34 4.34 0 0 0-1.23 2.79 2.51 2.51 0 0 0 .74 1.7C77.87 62.59 75.68 64 73.71 64c-1.12 0-1.62-.44-1.62-1.41 0-1.94 1.28-4.36 3.79-7.22zM56.58 43.92a10.94 10.94 0 0 0-.78-4 10.07 10.07 0 0 0 .46-2.75 5.63 5.63 0 0 0-2.59-4.82A11.56 11.56 0 0 0 47 30.6a32.1 32.1 0 0 0-9.3 1.59 39.68 39.68 0 0 0-9.25 4.14 30.34 30.34 0 0 0-9.2 8.44 17 17 0 0 0-3.43 9.7A11.2 11.2 0 0 0 19.27 63a12.78 12.78 0 0 0 9.05 3.26 26.91 26.91 0 0 0 9.2-1.86 39 39 0 0 0 9.34-5A27 27 0 0 0 54 52a15.16 15.16 0 0 0 2.6-8.08M19 56.9c0-3.85 1.48-7.8 4.39-11.75a33.54 33.54 0 0 1 10.8-9.47 27.81 27.81 0 0 1 13.58-3.84 8.74 8.74 0 0 1 5.33 1.51 4.57 4.57 0 0 1 2 3.87 5.41 5.41 0 0 1-.1 1.14 7.81 7.81 0 0 0-3.22-2.82 12.75 12.75 0 0 0-5.91-1.35c-5.08 0-10.21 2.09-15.27 6.22S23 48.8 23 53a6.59 6.59 0 0 0 1.79 4.71 6 6 0 0 0 4.48 1.89 5.5 5.5 0 0 0 3.34-1.06A3.2 3.2 0 0 0 34.06 56a2 2 0 0 0-2.22-2.14 2.74 2.74 0 0 0-1.84.66 2.15 2.15 0 0 0-.8 1.7 1.56 1.56 0 0 0 1.72 1.73 3 3 0 0 0 .64-.06l-.3.16a4.35 4.35 0 0 1-1.9.48 4 4 0 0 1-3.19-1.37A5.32 5.32 0 0 1 25 53.47c0-3.87 2.39-7.9 7.11-12s9.4-6.19 13.86-6.19a8.36 8.36 0 0 1 5.63 1.78 5.92 5.92 0 0 1 2 4.69 14.83 14.83 0 0 1-6.73 5.82c-.36.18-.66.35-.66.66a.52.52 0 0 0 .57.53c.44 0 1.31-.22 3.7-2.13A23.33 23.33 0 0 0 53.37 44c-.92 4.79-3.93 9.43-9 13.84C38.9 62.6 33.37 65 28 65a9.25 9.25 0 0 1-6.44-2.27A7.5 7.5 0 0 1 19 56.9zm53.26-15.2c.51 0 1.17-.44 2-1.36v.08a1.26 1.26 0 0 0 .35.92 1.23 1.23 0 0 0 .91.36c.57 0 1.34-.54 2.36-1.64a1.63 1.63 0 0 0 .55 1.14 1.89 1.89 0 0 0 1.32.49c1.06 0 2.28-.75 3.73-2.27l.43-.46c.21-.23.24-.29.24-.38a.27.27 0 0 0-.2-.27h-.05a.52.52 0 0 0-.37.22c-1.48 1.71-2.73 2.58-3.72 2.58-.62 0-.71-.26-.71-.52a2.4 2.4 0 0 1 .58-1.27 13.85 13.85 0 0 0 3.12-.81c.71-.33 1.07-.75 1.07-1.26a.77.77 0 0 0-.35-.64 1.24 1.24 0 0 0-.74-.23 5.65 5.65 0 0 0-2.25.64 5.07 5.07 0 0 0-2.38 1.9c-1.59 1.92-2.29 2.2-2.56 2.2s-.19-.06-.19-.17.09-.45 1-1.71c.68-1 2.37-3.32 4.74-6.55l-.19-.35h-.61a2.26 2.26 0 0 1-.59-.08h-.15l-3.19 4.54c-.08-.21-.29-.42-.78-.42a6 6 0 0 0-2.67.95c-1.44.81-2.17 1.74-2.17 2.77a1.61 1.61 0 0 0 .42 1.14 1.38 1.38 0 0 0 1 .46m1.13-3.27c1.22-1.22 1.91-1.43 2.28-1.43s.27.1.27.23-.13.55-1 1.62c-1.63 2-2.32 2.31-2.59 2.31s-.3-.16-.3-.39a4.14 4.14 0 0 1 1.39-2.34zm8.66-.54a7.76 7.76 0 0 1-1.7.7 8.8 8.8 0 0 1 1.19-1.07 2.53 2.53 0 0 1 1.27-.59c.1 0 .13 0 .14.05s-.12.46-.9.91z" stroke="#9e804d" stroke-width=".63" stroke-miterlimit="10" fill="#6d6e71"/><path class="cls-2" d="M29.39 18c0-2.89-1.45-4.43-4.21-4.43a9.14 9.14 0 0 0-6.18 2.8c-2 1.88-3 3.82-3 5.76 0 1.64 1 1.87 1.62 1.87a1.61 1.61 0 0 0 1.79-1.77A1.26 1.26 0 0 0 18 20.84a1.73 1.73 0 0 0-1 .33c.15-1.27 1.08-2.67 2.77-4.16 1.87-1.64 3.63-2.47 5.23-2.47a3.22 3.22 0 0 1 2.31.81 2.8 2.8 0 0 1 .85 2.16c0 1.82-.89 3.79-2.66 5.85-2.93 3.44-6.31 5.19-10 5.19A6.7 6.7 0 0 1 10.93 27a5.15 5.15 0 0 1-1.66-4 13.7 13.7 0 0 1 3.07-8h.81a32 32 0 0 0 9.06-1.54A28.5 28.5 0 0 0 30 10a6.29 6.29 0 0 1 1.18 3.48c0 .81.31 1 .57 1s.63-.06.63-.82a7.76 7.76 0 0 0-1.54-4.26 3.62 3.62 0 0 0 1.7-2.69c0-1.49-1.46-2.24-4.36-2.24a13.45 13.45 0 0 0-2.38.21A26.16 26.16 0 0 0 12 .31 15.43 15.43 0 0 0 3.73 2.4C1.46 3.82.31 5.62.31 7.76c0 3.46 2.87 5.78 8.54 6.88a12 12 0 0 0-2.18 6.54 7.91 7.91 0 0 0 2.55 6 8.76 8.76 0 0 0 6.25 2.41A14.74 14.74 0 0 0 25 26c2.88-2.38 4.34-5.06 4.34-8M18.52 9.09a24.27 24.27 0 0 1 7.16-3.33 14.83 14.83 0 0 1 3.78 3.39 27.87 27.87 0 0 1-7.75 3.36A35.07 35.07 0 0 1 13.12 14a24.47 24.47 0 0 1 5.4-4.91zM4.73 3.87A14 14 0 0 1 12.06 2a26.31 26.31 0 0 1 12.16 3C17.7 6.48 12.73 9.45 9.43 13.76 4.29 12.88 1.68 11 1.68 8.12c0-1.6 1.03-3.03 3.05-4.25zm26.83 2.78c0 .52-.44 1.18-1.27 1.91a16.07 16.07 0 0 0-3.18-3 10.93 10.93 0 0 1 1.54-.13c1.94-.04 2.91.39 2.91 1.22zm-3.33 18.89A3.73 3.73 0 0 0 29 28a2.59 2.59 0 0 0 2.05 1 3.5 3.5 0 0 0 2.3-1 18.27 18.27 0 0 0 1.93-2.15 4.16 4.16 0 0 0 0 .49 2.76 2.76 0 0 0 .72 1.87 2.25 2.25 0 0 0 1.76.78c1 0 2.33-.94 4-2.87l.3-.33a2.77 2.77 0 0 0 0 .52 2.55 2.55 0 0 0 .81 1.9 2.72 2.72 0 0 0 2 .78 3.91 3.91 0 0 0 2.49-1A18.5 18.5 0 0 0 50 25a1.92 1.92 0 0 0 1.48.71 4 4 0 0 0 2.45-1.09 5 5 0 0 0-.09.95 3.73 3.73 0 0 0 .8 2.43 2.59 2.59 0 0 0 2.05 1A3.49 3.49 0 0 0 59 28a18.43 18.43 0 0 0 1.93-2.15 3.85 3.85 0 0 0 0 .49 2.8 2.8 0 0 0 .67 1.91 2.27 2.27 0 0 0 1.77.78c1 0 2.33-.94 4-2.87 3-3.45 3-3.78 3-4a.43.43 0 0 0-.45-.45.68.68 0 0 0-.5.33 32.54 32.54 0 0 1-3.59 4.34C64.4 27.81 63.75 28 63.5 28s-.5 0-.5-.55c0-.32.24-1.23 1.81-3.76L68.44 18l-.33-.51a9.46 9.46 0 0 1-1.37.13 4.47 4.47 0 0 1-1-.13l-.25-.06-.45.83a1.4 1.4 0 0 0-1.51-.93 9.25 9.25 0 0 0-4 1.32 12.55 12.55 0 0 0-4.66 3.75c-1.35 1.57-2.49 2.37-3.38 2.37-.41 0-1.21-.21-.93-.51 2.06-2.31 3.16-4.39 3.31-6a.78.78 0 0 0-.83-.9c-.83 0-1.64.66-2.48 2a7.33 7.33 0 0 0-1.18 3.8 3.77 3.77 0 0 0 .14 1 23.78 23.78 0 0 1-2.83 3.12 2.89 2.89 0 0 1-1.83.8c-.68 0-.74-.3-.74-.58s.23-1.13 1.34-2.88L49.68 18l-.34-.51a5.53 5.53 0 0 1-1.13.09c-.21 0-.65 0-1.3-.1h-.2L44 21.84a1.25 1.25 0 0 0-.14.17 32.88 32.88 0 0 1-3.59 4.34C38.79 27.81 38.15 28 37.89 28s-.46 0-.46-.58c0-.32.24-1.23 1.82-3.76L42.83 18l-.33-.51a9.4 9.4 0 0 1-1.36.13 4.62 4.62 0 0 1-1-.13l-.24-.06-.45.83a1.4 1.4 0 0 0-1.51-.93 9.26 9.26 0 0 0-4 1.32c-3.76 2-5.67 4.29-5.67 6.9m10.33-6.64c0 .56-.48 1.86-2.74 4.8-2.76 3.57-4 4.32-4.58 4.32s-.84-.27-.84-.93c0-1.35 1-3.17 2.94-5.43s3.51-3.38 4.64-3.38c.38-.01.54.16.54.62zm25.61 0c0 .57-.48 1.86-2.75 4.8C58.51 27.46 57.3 28 56.84 28s-.84-.24-.84-.9c0-1.35 1-3.17 2.94-5.43s3.51-3.38 4.64-3.38c.42-.01.59.16.59.62zM89 55.75c-.22 0-.44.15-.73.49a9.76 9.76 0 0 1-2.81 2.47 4.79 4.79 0 0 1-3.7.91c2.25-2.68 3.34-4.93 3.34-6.89 0-1.22-.49-2.66-2.87-2.66-1.89 0-4.2.85-7.08 2.61A18.31 18.31 0 0 0 71 56a5.34 5.34 0 0 0-.51.45c-1.73 2.1-3.34 3.16-4.77 3.16-1.06 0-1.53-.55-1.53-1.8a5.73 5.73 0 0 1 .36-1.71l.25-.18.27-.14 1.67-.89c3.85-2.14 4.26-3.19 4.26-3.8 0-.31-.12-1-1.25-1a5 5 0 0 0-3.21 1.61 13 13 0 0 0-2.83 3.8c-.31.22-.63.46-.95.72a6.71 6.71 0 0 0 1-3.17c0-2.44-1.46-2.95-2.69-2.95-.76 0-2.26.55-6.44 5.32l-.51.61a.73.73 0 0 0-.2.34v.09a.48.48 0 0 0 .38.48h.07a1 1 0 0 0 .72-.48c3.52-4.4 5.07-5.33 5.76-5.33.24 0 .34.05.34.38 0 .5-.62 2-3.57 6.09l-4.85 6.74.29.53 1.78-.11c.1 0 .46 0 1.81.1h.18l.11-.15c1.84-2.71 3.23-4.63 4-5.56a16.73 16.73 0 0 1 2.2-2.11 4.78 4.78 0 0 0-.11.92 2.3 2.3 0 0 0 2.58 2.57 5.86 5.86 0 0 0 3.54-1.44A5.38 5.38 0 0 0 69 60.5a4.62 4.62 0 0 0 4.62 4.6c2.32 0 4.82-1.58 7.43-4.68a4.51 4.51 0 0 0 1.52.24 8 8 0 0 0 5-2.31c1.72-1.46 1.87-1.88 1.87-2.16a.42.42 0 0 0-.44-.43m-13.14-.38c2.5-2.86 4.63-4.31 6.31-4.31 1.27 0 1.83.53 1.83 1.72a4 4 0 0 1-.21 1.33.93.93 0 0 0-.57-.19 3.44 3.44 0 0 0-2.5 1.42 4.34 4.34 0 0 0-1.23 2.79 2.51 2.51 0 0 0 .74 1.7C77.87 62.59 75.68 64 73.71 64c-1.12 0-1.62-.44-1.62-1.41 0-1.94 1.28-4.36 3.79-7.22zM56.58 43.92a10.94 10.94 0 0 0-.78-4 10.07 10.07 0 0 0 .46-2.75 5.63 5.63 0 0 0-2.59-4.82A11.56 11.56 0 0 0 47 30.6a32.1 32.1 0 0 0-9.3 1.59 39.68 39.68 0 0 0-9.25 4.14 30.34 30.34 0 0 0-9.2 8.44 17 17 0 0 0-3.43 9.7A11.2 11.2 0 0 0 19.27 63a12.78 12.78 0 0 0 9.05 3.26 26.91 26.91 0 0 0 9.2-1.86 39 39 0 0 0 9.34-5A27 27 0 0 0 54 52a15.16 15.16 0 0 0 2.6-8.08M19 56.9c0-3.85 1.48-7.8 4.39-11.75a33.54 33.54 0 0 1 10.8-9.47 27.81 27.81 0 0 1 13.58-3.84 8.74 8.74 0 0 1 5.33 1.51 4.57 4.57 0 0 1 2 3.87 5.41 5.41 0 0 1-.1 1.14 7.81 7.81 0 0 0-3.22-2.82 12.75 12.75 0 0 0-5.91-1.35c-5.08 0-10.21 2.09-15.27 6.22S23 48.8 23 53a6.59 6.59 0 0 0 1.79 4.71 6 6 0 0 0 4.48 1.89 5.5 5.5 0 0 0 3.34-1.06A3.2 3.2 0 0 0 34.06 56a2 2 0 0 0-2.22-2.14 2.74 2.74 0 0 0-1.84.66 2.15 2.15 0 0 0-.8 1.7 1.56 1.56 0 0 0 1.72 1.73 3 3 0 0 0 .64-.06l-.3.16a4.35 4.35 0 0 1-1.9.48 4 4 0 0 1-3.19-1.37A5.32 5.32 0 0 1 25 53.47c0-3.87 2.39-7.9 7.11-12s9.4-6.19 13.86-6.19a8.36 8.36 0 0 1 5.63 1.78 5.92 5.92 0 0 1 2 4.69 14.83 14.83 0 0 1-6.73 5.82c-.36.18-.66.35-.66.66a.52.52 0 0 0 .57.53c.44 0 1.31-.22 3.7-2.13A23.33 23.33 0 0 0 53.37 44c-.92 4.79-3.93 9.43-9 13.84C38.9 62.6 33.37 65 28 65a9.25 9.25 0 0 1-6.44-2.27A7.5 7.5 0 0 1 19 56.9zm53.26-15.2c.51 0 1.17-.44 2-1.36v.08a1.26 1.26 0 0 0 .35.92 1.23 1.23 0 0 0 .91.36c.57 0 1.34-.54 2.36-1.64a1.63 1.63 0 0 0 .55 1.14 1.89 1.89 0 0 0 1.32.49c1.06 0 2.28-.75 3.73-2.27l.43-.46c.21-.23.24-.29.24-.38a.27.27 0 0 0-.2-.27h-.05a.52.52 0 0 0-.37.22c-1.48 1.71-2.73 2.58-3.72 2.58-.62 0-.71-.26-.71-.52a2.4 2.4 0 0 1 .58-1.27 13.85 13.85 0 0 0 3.12-.81c.71-.33 1.07-.75 1.07-1.26a.77.77 0 0 0-.35-.64 1.24 1.24 0 0 0-.74-.23 5.65 5.65 0 0 0-2.25.64 5.07 5.07 0 0 0-2.38 1.9c-1.59 1.92-2.29 2.2-2.56 2.2s-.19-.06-.19-.17.09-.45 1-1.71c.68-1 2.37-3.32 4.74-6.55l-.19-.35h-.61a2.26 2.26 0 0 1-.59-.08h-.15l-3.19 4.54c-.08-.21-.29-.42-.78-.42a6 6 0 0 0-2.67.95c-1.44.81-2.17 1.74-2.17 2.77a1.61 1.61 0 0 0 .42 1.14 1.38 1.38 0 0 0 1 .46m1.13-3.27c1.22-1.22 1.91-1.43 2.28-1.43s.27.1.27.23-.13.55-1 1.62c-1.63 2-2.32 2.31-2.59 2.31s-.3-.16-.3-.39a4.14 4.14 0 0 1 1.39-2.34zm8.66-.54a7.76 7.76 0 0 1-1.7.7 8.8 8.8 0 0 1 1.19-1.07 2.53 2.53 0 0 1 1.27-.59c.1 0 .13 0 .14.05s-.12.46-.9.91z"/><ellipse cx="90.18" cy="61.08" rx="1.31" ry="1.34" stroke="#000" stroke-width=".24" stroke-miterlimit="10" fill="#6d6e71"/><path class="cls-2" d="M89.64 60.3a2.59 2.59 0 0 1 .44 0 .77.77 0 0 1 .51.13.39.39 0 0 1 .14.31.43.43 0 0 1-.33.42.41.41 0 0 1 .26.33 2.42 2.42 0 0 0 .14.45h-.24a2 2 0 0 1-.12-.39c-.05-.22-.15-.31-.36-.32h-.22v.7h-.23zm.23.74h.23c.24 0 .4-.12.4-.31s-.17-.3-.41-.3h-.23z"/></g></g></svg>