<svg xmlns="http://www.w3.org/2000/svg" viewBox="0 0 71.26 71.26"><defs><style>.cls-1{fill:#fff}</style></defs><g id="Capa_2" data-name="Capa 2"><g id="Capa_1-2" data-name="Capa 1"><circle cx="35.63" cy="35.63" r="35.63" transform="rotate(-20.99 35.637 35.635)"/><path class="cls-1" d="M69.58 35.63A33.95 33.95 0 1 1 35.63 1.68a34 34 0 0 1 33.95 33.95z"/><path d="M59.09 35.63a23.46 23.46 0 1 1-23.46-23.46 23.46 23.46 0 0 1 23.46 23.46z"/><circle class="cls-1" cx="35.63" cy="35.63" r="21.7" transform="rotate(-82.44 35.627 35.63)"/><path d="M33.74 55.31a14.85 14.85 0 0 1-2.64-.17c-.8-.16-1.68-.16-2-.21s-.54-.16-.12-.33a.73.73 0 0 0 .54-.67c0-.3.25-.42.72-.55s1-.17 1.05-.63a7.19 7.19 0 0 1 .41-3.36c-1-.67-13-6.92-13-6.92l6.89 2.14-7-7.43 9.23 7.3-4.57-4.7 2.22 1.39-5.58-7.64 9.44 10-7.17-12.06 3.73 3.78-5.07-9.48 5.74 7.8-4.07-12.88 5.33 10.7-3.27-12 6.09 15.48-2.44-15.4 3.36 10.79-1.93-11.54 3 10 .08-11.25L34 26.14l1.43-7.21 1 6.59.59-7.81 1.13 5.2.38-4.7.47 2.86 1.09-5.67-.25 5.79L41.38 17v6l2.72-4.12-2.85 11.04L46 20.27l-2.9 10.79 3.9-7.77-1.3 5.88 2.85-5.25-4.86 14.19 5.12-7.47-4.33 9.52 8.15-8.89-8.31 11.12L51 37.18l-8.9 9.44 11.46-6.5L45.41 46l6.46-1.05S42.26 47.38 40 50.11c.13.71 1 2.31.09 3.44 1 .38 3.4 1.13 2.81 1.3a12 12 0 0 1-2.94.92c-1 0-3.06.13-3.57.17s-1.89-.63-2.65-.63z" opacity=".5" fill="#231f20"/><path d="M12.08 56.23a2.36 2.36 0 0 1-.36 0h-.27s-.08 0 0 0 .07 0 .07-.09 0-.06.1-.08.13 0 .14-.08a.94.94 0 0 1 .06-.46c-.13-.09-1.77-.94-1.77-.94l.94.29-1-1 1.25 1-.62-.64.3.19-.75-1 1.28 1.36-1-1.64.5.52-.69-1.29.78 1.06-.55-1.75.79 1.32-.45-1.63.83 2.11-.33-2.1.45 1.47-.26-1.57.41 1.36V51.1l.18 1.17.19-1 .14.89.08-1.06.15.71.06-.64v.39l.15-.77v.79l.21-.57v.81l.37-.56-.38 1.5.65-1.31-.4 1.47.53-1.06-.17.8.38-.71-.66 1.93.7-1-.59 1.3L14.65 53l-1.13 1.51.9-.71-1.21 1.28 1.56-.88-1.1.79.87-.14a4.82 4.82 0 0 0-1.62.71c0 .09.14.31 0 .47.13 0 .46.15.38.17a2.09 2.09 0 0 1-.4.13h-.49c-.04 0-.23-.1-.33-.1zm47.09 0a2.3 2.3 0 0 1-.36 0h-.28s-.07 0 0 0a.12.12 0 0 0 .07-.09s0-.06.1-.08.13 0 .14-.08a.94.94 0 0 1 .06-.46c-.13-.09-1.77-.94-1.77-.94l.93.29-.95-1 1.25 1-.62-.64.3.19-.76-1 1.29 1.36-1-1.64.51.52-.69-1.29.78 1.06-.55-1.75.74 1.32-.44-1.63.82 2.11-.33-2.1.46 1.47-.26-1.57.39 1.34V51.1l.18 1.17.19-1 .14.89.08-1.06.15.71v-.64l.06.39.15-.77v.79l.25-.58v.81l.37-.56-.38 1.5.64-1.31-.39 1.47.56-1.03-.17.8.39-.71-.66 1.93.69-1-.58 1.3 1.06-1.2-1.13 1.48.91-.71-1.21 1.28 1.56-.88-1.11.83.88-.14a4.74 4.74 0 0 0-1.62.71c0 .09.13.31 0 .47.13 0 .46.15.38.17a1.87 1.87 0 0 1-.4.13h-.48c-.06-.01-.24-.11-.34-.11z" fill="#231f20"/><path d="M9.62 48.2c.24-.11.25-.13.14-.37l-.28-.59c-.21-.45-.32-.53-.77-.42l-.24.06c-.1 0-.2-.25-.14-.33.28-.11.6-.25.93-.4s.64-.31.91-.46a.28.28 0 0 1 .15.32l-.19.14c-.38.29-.4.42-.19.87l.28.6c.11.23.13.24.39.12l1-.49a1.67 1.67 0 0 0 .75-.52c.11-.19.1-.38-.2-1s-.51-1-1.71-1.06a.23.23 0 0 1-.11-.34 5.37 5.37 0 0 1 1.59-.33c.19.47.57 1.31.91 2l.52 1.12c.2.42.41.84.73 1.48a.29.29 0 0 1-.31.15l-.25-.38c-.24-.37-.32-.39-1.11 0l-3.24 1.54c-.78.37-.81.45-.71.87l.06.24a.25.25 0 0 1-.31.13c-.17-.42-.36-.85-.56-1.26l-.86-1.84c-.26-.56-.5-1-.57-1.15.14-.07.73-.43 1.29-.74.11 0 .22.18.19.3a2.08 2.08 0 0 0-.53.65 1.26 1.26 0 0 0 .13 1l.32.69c.13.29.15.28.47.13zM8.9 37.82c.61-.12 1.21-.22 1.52-.3a.78.78 0 0 1 .31.52s-.42.4-.88 1l-2.3 2.66a13.3 13.3 0 0 0-1 1.25 1.61 1.61 0 0 0 .61-.07L9 42.5a6.92 6.92 0 0 0 1.7-.45c.18-.12.2-.35.2-.6v-.27a.29.29 0 0 1 .33-.06c.07.51.13.89.2 1.26s.13.7.22 1a.3.3 0 0 1-.33.06l-.06-.15c-.09-.25-.19-.43-.4-.47a7.22 7.22 0 0 0-1.75.19l-2.39.43a2.35 2.35 0 0 0-.79.21.6.6 0 0 0-.22.6v.27c-.07.08-.29.11-.34 0-.06-.44-.14-.92-.21-1.3S5 42.7 5 42.5a8.16 8.16 0 0 0 1.86-1.94l.79-1c.42-.51.7-.84.87-1.1a1.42 1.42 0 0 0-.43 0l-1.3.24a7.14 7.14 0 0 0-1.69.45c-.19.13-.21.34-.21.61v.26a.31.31 0 0 1-.33.06c-.07-.51-.13-.88-.2-1.27s-.13-.68-.22-1a.3.3 0 0 1 .33-.06l.03.25c.08.23.19.4.4.45a7.44 7.44 0 0 0 1.75-.17zm-.5-5.76c1.12.58 1.85.9 2.36 1.16a.6.6 0 0 1 .05.34.44.44 0 0 1-.09.26c-.27.08-.79.2-1.13.31l-4 1.22c-1 .28-1 .33-1.07.63l-.13.37a.24.24 0 0 1-.32-.06c0-.49.09-.8.13-1.3s.06-.85.09-1.43a.29.29 0 0 1 .33 0v.29c0 .17.08.24.16.25a7.07 7.07 0 0 0 1.08-.29l2.22-.66.76-.24-.68-.36-.87-.43c-.58-.29-1.61-.78-1.93-.92a1.1 1.1 0 0 0-.33-.12c-.07 0-.11 0-.19.24l-.09.27c-.08.07-.28.06-.32-.06.06-.45.1-.81.13-1.17s0-.61 0-.89a.26.26 0 0 1 .33 0v.25a.65.65 0 0 0 .29.55 9.16 9.16 0 0 0 1.53.92zm.92-3.49c-.07.22-.07.25.09.36l1 .66a1 1 0 0 0 .31.17c.05 0 .13 0 .25-.28l.13-.26c.08 0 .3 0 .32.11-.12.32-.23.68-.36 1.06s-.13.53-.26.95c-.08.09-.27 0-.33-.07l.05-.25a.66.66 0 0 0-.28-.7c-.32-.27-.71-.57-1.3-1l-2-1.51c-.51-.39-.78-.66-1-.71a1.93 1.93 0 0 0-.31-1c0-.12.1-.16.25-.15s.66 0 1.38 0l4-.15c.61 0 .84 0 1-.36l.16-.33c.07 0 .29 0 .32.11-.15.43-.31.92-.46 1.4s-.24.81-.35 1.24a.22.22 0 0 1-.32-.08v-.31c0-.22 0-.27-.08-.29a4.6 4.6 0 0 0-.68 0h-.92c-.16 0-.2.07-.3.39zm-.19-1.13c.07-.21 0-.26-.21-.26H7.05c.17.15.51.41.89.68l.62.44c.22.16.26.12.33-.11zm4.67-3.8a3.37 3.37 0 0 1-1.12 1.24 3.19 3.19 0 0 1-1.5-.5.24.24 0 0 1 .16-.33 2 2 0 0 0 2.11-.69 1 1 0 0 0-.33-1.36 1.93 1.93 0 0 0-2 .39 2.2 2.2 0 0 1-2.33.34c-1-.52-1.18-1.62-.5-2.83A4 4 0 0 1 9 19l.23-.24a4.59 4.59 0 0 1 1.27.52c.08.1 0 .31-.16.34a1.53 1.53 0 0 0-1.65.52.88.88 0 0 0 .31 1.28 1.38 1.38 0 0 0 1.38-.22l.6-.38a2.17 2.17 0 0 1 2.34-.23c1 .58 1.19 1.79.48 3.05zm.89-5.42c-.15.17-.17.2-.07.36l.59 1a1.14 1.14 0 0 0 .22.28s.13 0 .35-.15l.22-.18c.09 0 .27.14.24.24-.24.24-.49.52-.77.82s-.34.42-.63.75c-.12 0-.26-.1-.27-.2l.15-.21a.67.67 0 0 0 0-.76c-.18-.37-.4-.81-.74-1.46l-1.17-2.2a3.66 3.66 0 0 0-.66-1.09 1.87 1.87 0 0 0 .13-1c.08-.09.15-.1.29 0s.6.28 1.26.56l3.67 1.53c.56.23.78.31 1.06.08l.28-.23c.08 0 .26.13.25.23-.32.33-.68.71-1 1.08s-.56.64-.84 1a.22.22 0 0 1-.26-.2l.17-.26c.12-.19.09-.27.05-.31a5.34 5.34 0 0 0-.61-.29l-.78-.36c-.15-.07-.21 0-.44.23zm.3-1.1c.15-.17.16-.22-.08-.33l-.74-.33c-.4-.18-.77-.35-1-.42a10.6 10.6 0 0 0 .53 1l.37.66c.14.23.19.21.35 0zM17.23 12c-.5-.76-.61-.91-1-.71l-.16.09c-.11 0-.26-.23-.16-.3.64-.47 1.25-.91 2.1-1.46a7 7 0 0 1 2.05-.94A2.89 2.89 0 0 1 23.18 10a3 3 0 0 1 .11 3.33A5.24 5.24 0 0 1 21.5 15c-.38.25-.81.46-1.1.64s-.79.53-1.24.84c-.09 0-.22-.2-.18-.28l.22-.2c.33-.29.34-.38-.14-1.12zM20 13.82c.28.44.49.72.74.8a1 1 0 0 0 .82-.2c1.39-.89 1.07-2.44.36-3.53a2.44 2.44 0 0 0-3.69-.89c-.21.14-.34.28-.35.37a1.22 1.22 0 0 0 .25.5zM31.37 7.5a3.18 3.18 0 0 1-2.44 4.14 3.13 3.13 0 0 1-4.07-2.26 3.3 3.3 0 0 1 2.4-4.15 3.16 3.16 0 0 1 4.11 2.27zm-4.06-1.82c-1.14.31-1.45 1.54-1 3.08.31 1.12 1.21 2.82 2.71 2.41 1.21-.34 1.35-1.65.94-3.14s-1.51-2.67-2.65-2.35zm9.32.03c.12-.91.12-1.09-.31-1.19h-.18c-.09-.06-.06-.34.06-.33.8 0 1.55.1 2.55.23a6.79 6.79 0 0 1 2.18.58 2.92 2.92 0 0 1 1.59 3 3.07 3.07 0 0 1-2.06 2.63 5.23 5.23 0 0 1-2.45.14c-.45-.05-.92-.17-1.26-.21s-.94-.11-1.48-.15a.28.28 0 0 1 0-.34h.3c.43 0 .5-.08.61-.95zm1 3.17a1.66 1.66 0 0 0 .05 1.12 1 1 0 0 0 .75.37c1.64.21 2.39-1.19 2.54-2.48a2.43 2.43 0 0 0-2.28-3.05.69.69 0 0 0-.51.07 1.11 1.11 0 0 0-.13.54zm8.6-.13c-.1.25-.1.27.14.37l.61.25c.46.19.59.17.85-.22L48 9c.09 0 .31 0 .32.14-.13.28-.27.59-.41.93s-.26.66-.36 1a.27.27 0 0 1-.33-.13l.05-.24c.08-.46 0-.57-.46-.76l-.61-.25c-.24-.1-.25-.09-.36.17l-.43 1.06a1.62 1.62 0 0 0-.2.9c0 .2.19.34.83.61s1.09.41 2-.39a.23.23 0 0 1 .31.18 5.49 5.49 0 0 1-.95 1.26c-.46-.21-1.31-.57-2-.86L44.17 12l-1.54-.59c-.05-.09 0-.3.13-.31l.44.11c.42.1.5.07.83-.75l1.36-3.3c.33-.81.29-.88-.07-1.12l-.2-.14a.23.23 0 0 1 .14-.3c.41.19.84.37 1.26.55L48.4 7c.57.23 1.08.43 1.2.46-.05.14-.25.8-.45 1.41-.08.09-.29 0-.34-.09a2.31 2.31 0 0 0-.05-.84 1.25 1.25 0 0 0-.76-.67L47.3 7c-.3-.12-.3-.1-.44.22zm11.01 8.39a3.17 3.17 0 0 1-4.8.12 3.12 3.12 0 0 1-.23-4.65 3.29 3.29 0 0 1 4.79-.16 3.16 3.16 0 0 1 .24 4.69zm-.6-4.42c-.87-.79-2.08-.41-3.16.76-.79.86-1.76 2.52-.61 3.58.92.85 2.11.28 3.16-.86s1.48-2.67.61-3.48zM60 18.27c.81-.5.89-.57.73-.94l-.1-.24c0-.11.19-.24.29-.16.42.58.84 1.2 1.32 2a4.13 4.13 0 0 1 .69 1.78 1.57 1.57 0 0 1-.77 1.46 1.53 1.53 0 0 1-1.78-.17c-.09-.06-.14 0-.21.07a7.84 7.84 0 0 0-1.26 2.51 1.16 1.16 0 0 0 .11.69.19.19 0 0 1-.2.16 2.15 2.15 0 0 1-.46-.6 1.92 1.92 0 0 1-.12-2.1 13.09 13.09 0 0 1 .87-1.42.47.47 0 0 0 0-.6c-.17-.29-.2-.3-.36-.19l-1 .61c-.75.46-.78.55-.62.95l.09.25c0 .08-.2.2-.28.17-.25-.44-.47-.82-.71-1.21s-.48-.76-.76-1.18c0-.09.21-.21.29-.17l.17.19c.29.33.38.34 1.13-.12zM59.62 20c-.29.18-.3.22 0 .7a.93.93 0 0 0 .61.48 1.39 1.39 0 0 0 1.06-.18 1.27 1.27 0 0 0 .55-1.81c-.21-.33-.24-.33-.63-.09zm1.08 7.15c-.84.31-.89.39-.81.83v.26a.28.28 0 0 1-.32.11c-.16-.49-.31-.94-.46-1.36s-.34-.87-.53-1.35a.27.27 0 0 1 .31-.12l.14.24c.22.38.3.41 1.15.1l3.3-1.21c.85-.31.89-.39.81-.83v-.27a.28.28 0 0 1 .32-.11c.16.49.31.94.47 1.37s.33.87.53 1.35a.29.29 0 0 1-.32.12l-.13-.28c-.23-.39-.31-.42-1.15-.11zm1.2 7.61c-.39.06-.58.1-.59.29a.23.23 0 0 1-.24 0 3.93 3.93 0 0 0-.23-.64 7.83 7.83 0 0 1-.47-1.65 4.78 4.78 0 0 1 .07-1.91A3 3 0 0 1 63 28.58a3.18 3.18 0 0 1 3.1 1.26A4.71 4.71 0 0 1 67 32a11.8 11.8 0 0 1 0 1.91c-.28.07-.94.17-1.51.35-.11 0-.15-.28-.07-.36a1.78 1.78 0 0 0 1.09-2c-.21-1.51-1.57-2.06-3.06-1.85A2.94 2.94 0 0 0 61 31.51a2.34 2.34 0 0 0-.18 1.35c.08.54.2.64.82.56l.59-.09c.51-.07.56-.14.57-.6v-.42a.22.22 0 0 1 .34-.05c.07.67.13 1.14.19 1.6s.14.92.21 1.24a.27.27 0 0 1-.34 0l-.06-.21c-.09-.28-.19-.33-.71-.25zm2.47 3.73c-.26 0-.28 0-.31.23l-.08.66c0 .49 0 .61.45.76l.23.07c.07.08 0 .32 0 .35-.3-.05-.64-.1-1-.14s-.71-.07-1-.08a.26.26 0 0 1 0-.35h.24c.47 0 .55-.14.61-.64l.07-.66c0-.25 0-.26-.26-.29l-1.13-.13a1.68 1.68 0 0 0-.92 0c-.19.1-.28.28-.36 1s-.1 1.15.91 1.8a.22.22 0 0 1-.08.34 5.08 5.08 0 0 1-1.48-.57c.08-.5.19-1.41.27-2.19l.14-1.23c0-.46.1-.93.16-1.64a.27.27 0 0 1 .33 0v.46c0 .43.06.5.94.59l3.55.4c.86.1.93 0 1.06-.37l.07-.23a.24.24 0 0 1 .33.05c-.07.45-.13.91-.18 1.37l-.22 2c-.07.61-.12 1.16-.12 1.28h-1.48c-.11 0-.1-.27 0-.36a2.11 2.11 0 0 0 .79-.27 1.31 1.31 0 0 0 .4-.9l.08-.76c0-.32 0-.32-.33-.36zm-4.8 9.23c-.58-.22-1.15-.44-1.45-.53a.79.79 0 0 1 0-.61s.57-.13 1.25-.35l3.35-1.07c.83-.28 1.32-.42 1.52-.53a1.64 1.64 0 0 0-.55-.27L62 43.69a6.87 6.87 0 0 0-1.68-.5c-.22 0-.36.19-.49.41l-.13.24a.31.31 0 0 1-.31-.12c.2-.48.35-.83.49-1.19s.24-.66.36-1a.3.3 0 0 1 .31.12v.16c0 .26-.06.47.1.61a7.15 7.15 0 0 0 1.59.76l2.26.87a2.11 2.11 0 0 0 .79.23c.18 0 .33-.09.5-.39l.13-.24c.09 0 .31.06.3.16-.18.41-.36.86-.51 1.22s-.2.57-.26.76a8.38 8.38 0 0 0-2.6.69l-1.17.41c-.62.21-1 .35-1.32.47a1.41 1.41 0 0 0 .39.19l1.15.45a6.91 6.91 0 0 0 1.69.5c.21 0 .35-.18.48-.41l.13-.23a.31.31 0 0 1 .31.12L64 49.19c-.12.33-.24.65-.35 1a.32.32 0 0 1-.32-.12v-.17a.59.59 0 0 0-.11-.6 6.8 6.8 0 0 0-1.58-.76zM17.73 29.66c-.19-.07-.23-.09-.3.1l-.18.5c-.21.58 0 .86.54 1.32a.23.23 0 0 1-.18.26 10.43 10.43 0 0 0-1.26-.76.24.24 0 0 1 0-.12.2.2 0 0 1 .08-.1c.15 0 .19 0 .41-.61l1.09-3c.19-.53.23-.65.09-.78a.14.14 0 0 1 0-.11s.07-.1.1-.1a5.84 5.84 0 0 0 1.32.62c.06.07 0 .29-.08.3-.56 0-1-.07-1.19.52l-.18.48c-.07.19-.05.22.15.3l3.51 1.29c.74.27.82.25 1-.09l.16-.31a.28.28 0 0 1 .28.11c-.21.51-.36.9-.49 1.26s-.29.8-.48 1.36a.24.24 0 0 1-.28-.1l.1-.37c.09-.37 0-.45-.71-.72zM22.81 24c.17.17.19.17.35 0l.4-.43c.3-.32.33-.44.09-.78l-.13-.17c0-.09.14-.25.22-.23.19.2.41.42.64.64l.67.6c0 .08-.11.24-.21.23l-.18-.11c-.35-.22-.47-.19-.77.13l-.4.42c-.16.17-.16.18 0 .36l.74.69a1.42 1.42 0 0 0 .68.45c.18 0 .34-.05.77-.5s.68-.76.3-1.76c0-.11.15-.24.25-.2a4.68 4.68 0 0 1 .77 1.23c-.32.32-.88.9-1.36 1.41l-.75.8-1 1.08c-.09 0-.23-.12-.22-.2l.23-.33c.22-.32.22-.39-.35-.93l-2.3-2.16c-.57-.53-.64-.53-1-.3l-.18.12c-.09 0-.23-.12-.2-.21.28-.28.57-.58.85-.88l1.28-1.3c.37-.4.7-.76.76-.85l1 .82c.05.09-.07.24-.19.25a2 2 0 0 0-.7-.22 1.15 1.15 0 0 0-.77.42l-.46.5c-.19.2-.18.21.05.43zm9.56-5a2.71 2.71 0 0 1-.66 3.19c0 .06 0 .1.14.16a5.05 5.05 0 0 0 2.16.47 3.51 3.51 0 0 0 .62-.17.92.92 0 0 0 .31-.2.17.17 0 0 1 .15.17 2.2 2.2 0 0 1-1 .73 4.35 4.35 0 0 1-3.38-.25.68.68 0 0 0-.52-.11 2.71 2.71 0 0 1-3.39-1.79 2.91 2.91 0 0 1 1.74-3.87A2.8 2.8 0 0 1 32.37 19zM28 20.53c.38 1 1.32 2.38 2.61 1.88 1-.4 1-1.58.54-2.86s-1.54-2.21-2.52-1.83-1.15 1.49-.63 2.81zm7.35-3.3c.08-.78 0-.84-.34-.95l-.2-.07a.2.2 0 0 1 0-.28c.41.06.83.11 1.23.15s.83.08 1.24.11a.23.23 0 0 1 0 .28h-.21c-.39 0-.44.09-.53.88l-.2 1.95c-.1 1-.11 2.08 1.17 2.22 1.08.11 1.51-.8 1.63-2l.11-1a5.84 5.84 0 0 0 0-1.55c0-.19-.23-.26-.46-.32l-.22-.07a.24.24 0 0 1 0-.28l1.13.14c.31 0 .62.06.94.07a.24.24 0 0 1 0 .29h-.15c-.23 0-.39.06-.49.23a6.12 6.12 0 0 0-.28 1.53l-.1.94a3 3 0 0 1-.76 2 2.32 2.32 0 0 1-1.73.43 2.57 2.57 0 0 1-1.62-.65 2.34 2.34 0 0 1-.42-2zM43 22.4c-.36.71-.34.79 0 1l.19.14a.22.22 0 0 1-.14.26l-1.12-.59c-.36-.19-.74-.37-1.16-.56a.25.25 0 0 1 .13-.27l.23.07c.38.12.46.09.82-.62l1.41-2.79c.36-.71.34-.78 0-1l-.19-.15a.24.24 0 0 1 .13-.26l1.14.6c.36.18.74.37 1.16.56a.25.25 0 0 1-.14.27l-.23-.06c-.38-.12-.45-.09-.81.62zm3.23 2.2c-.28.28-.45.5-.46.67s0 .34.47.77.73.7 1.78.36c.11 0 .22.15.19.26a5.3 5.3 0 0 1-1.23.72c-.3-.33-.87-.92-1.36-1.41l-.81-.8c-.27-.28-.58-.57-1-.93 0-.09.11-.24.19-.23l.26.2c.3.23.39.22.94-.34l2.24-2.23c.55-.56.57-.65.34-.95l-.15-.2c0-.09.11-.23.22-.2.3.33.59.63.88.92s.59.58.91.87c0 .08-.13.22-.21.21l-.18-.13c-.32-.23-.4-.22-1 .34zM50 28.91c-.07-.19-.09-.21-.26-.2l-1 .08a.93.93 0 0 0-.3.06s-.07.1 0 .34v.25c0 .07-.21.16-.28.09-.09-.28-.22-.59-.35-.92s-.2-.44-.35-.8c0-.11.18-.17.27-.14l.11.2a.58.58 0 0 0 .59.32h1.45L52 28.1a3.15 3.15 0 0 0 1.13-.1 1.68 1.68 0 0 0 .74.49c.05.11 0 .17-.08.25s-.45.37-.93.79l-2.65 2.32c-.4.35-.56.5-.49.81l.08.31a.25.25 0 0 1-.28.11c-.14-.38-.3-.81-.47-1.22s-.29-.7-.45-1.05a.19.19 0 0 1 .27-.13l.14.24c.1.16.17.17.22.15a3.52 3.52 0 0 0 .47-.36l.59-.49c.11-.09.1-.16 0-.43zm.76.67c.08.18.11.21.29.06l.56-.46c.29-.25.57-.48.71-.62h-1.67c-.24 0-.25.07-.17.27zM17.67 56.17c0-.1.11-.29.21-.26.26.19.6.42 1 .67a7.74 7.74 0 0 0 .8.49 5.52 5.52 0 0 0-.48 2.15L19 60.7c0 .21-.08.82-.09 1.1.22-.13.51-.29 1-.63l1-.62a12.47 12.47 0 0 0 2-1.42 9 9 0 0 0 .84.57c.27.17.64.4.94.57.06.11 0 .26-.15.3l-.26-.11a.58.58 0 0 0-.87.26c-1.06 1.66-1.6 2.54-2.21 3.59-.22.38-.31.59 0 .83l.23.2c0 .11-.09.29-.19.27l-1.1-.74-1.21-.74c-.07-.1.05-.29.16-.29l.26.12c.41.19.47.09.78-.4l1.33-2.1.59-.92c-1.42.91-2.93 1.84-4.33 2.85a.3.3 0 0 1-.2 0 .62.62 0 0 1-.18-.18c.33-1.2.63-3.78.85-5.11-.36.5-.58.8-.86 1.22l-1.18 1.8c-.26.4-.28.54 0 .8l.28.25a.26.26 0 0 1-.19.27c-.29-.21-.63-.44-.94-.63s-.59-.37-.92-.56c-.09-.1 0-.31.15-.31l.16.07c.45.19.51.16.88-.31s.78-1 1.32-1.77c.38-.52.82-1.16 1.1-1.59s.2-.7-.09-1zm9.43 7.36c-.08.26-.07.28.18.35l.63.19c.48.14.61.1.83-.31l.11-.22c.08 0 .31 0 .34.11-.11.29-.21.62-.31 1s-.19.68-.26 1c-.07.07-.3 0-.34-.09v-.24c0-.47-.05-.58-.53-.72l-.64-.18c-.24-.07-.26-.07-.34.21l-.31 1.09a1.64 1.64 0 0 0-.11.92c.07.2.22.32.89.52s1.12.29 1.93-.6c.1-.08.32 0 .33.15a5.64 5.64 0 0 1-.8 1.29c-.48-.16-1.36-.42-2.11-.64L25.4 67l-1.59-.43c-.06-.08 0-.3.09-.32l.45.06c.43.06.5 0 .75-.83l1-3.43c.24-.83.2-.9-.19-1.11l-.21-.11a.23.23 0 0 1 .11-.31l1.31.41 1.95.56c.59.18 1.11.32 1.24.34 0 .14-.16.83-.3 1.45-.06.09-.28.05-.35-.06a2.17 2.17 0 0 0-.13-.83 1.29 1.29 0 0 0-.82-.54l-.71-.2c-.3-.08-.31-.07-.4.27zm2.67-3.73a.66.66 0 0 1 .35-.06c.09 0 .18.13.23.37a.55.55 0 0 1 0 .42.41.41 0 0 1-.36.15l-2 .06a.19.19 0 0 1 0-.26zm1.37 8.35a1.49 1.49 0 0 0 1.14-.76c.3-.35.83-1 1.26-1.63a.66.66 0 0 0 .15-.29.61.61 0 0 0-.14-.31c-.3-.49-.86-1.46-1.28-2.12a1.11 1.11 0 0 0-.83-.55h-.16a.24.24 0 0 1 0-.33c.31 0 .91.07 1.49.09h1.46c.1 0 .09.26 0 .33h-.21c-.15 0-.33.06-.33.13a.83.83 0 0 0 .14.38c.24.46.5.91.78 1.36.38-.52.69-.91 1-1.41a.48.48 0 0 0 .12-.28s-.07-.08-.19-.1l-.3-.06a.24.24 0 0 1 0-.34c.3 0 .65.06 1.1.08s.8 0 1.11 0c.09 0 .09.25 0 .33h-.31a.86.86 0 0 0-.55.21 18 18 0 0 0-1.5 1.67A1.48 1.48 0 0 0 35 65a.72.72 0 0 0 .13.3c.67 1.14 1.1 1.88 1.43 2.41s.54.67.9.73h.3a.26.26 0 0 1 0 .33c-.42 0-.71-.06-1.49-.09s-1.09 0-1.6 0c-.09 0-.12-.29 0-.33h.26q.36 0 .36-.12c0-.08 0-.17-.25-.58s-.78-1.36-.91-1.55a18.46 18.46 0 0 0-1.2 1.78.87.87 0 0 0-.1.25c0 .06.1.11.3.14h.25c.08.07.07.3 0 .33L32 68.5h-1c-.09 0-.11-.26 0-.31zm10.01-1.4c.13.89.2 1 .65 1h.27a.27.27 0 0 1 0 .33c-.51.06-1 .12-1.42.19s-.93.15-1.44.25a.29.29 0 0 1 0-.33l.26-.09c.42-.14.47-.22.33-1.11l-.53-3.48c-.14-.89-.2-.94-.65-.95h-.27a.26.26 0 0 1-.05-.33l1.43-.23c.44-.07.91-.15 1.42-.25a.26.26 0 0 1 .05.33l-.26.09c-.42.14-.47.21-.33 1.1zm6.51-7.02a13.91 13.91 0 0 0 .63 1.36c0 .12-.22.24-.31.19a1.75 1.75 0 0 0-2.17-.66c-1 .37-1.74 1.62-1.08 3.41s2.06 2.35 3.13 2a2.05 2.05 0 0 0 1.31-2.07.28.28 0 0 1 .37-.06 4.26 4.26 0 0 1 .18 1.53 6.87 6.87 0 0 1-1.7 1 4.32 4.32 0 0 1-2.66.22 3 3 0 0 1-2-1.92 3.18 3.18 0 0 1 .19-2.78 4.21 4.21 0 0 1 2.19-1.73 11.35 11.35 0 0 1 1.92-.49zM56 57.64a3.18 3.18 0 0 1-.81 4.74 3.12 3.12 0 0 1-4.6-.66 3.29 3.29 0 0 1 .78-4.72 3.17 3.17 0 0 1 4.63.64zm-4.45-.25c-1 .7-.81 2 .14 3.24.69.94 2.13 2.21 3.39 1.29 1-.75.68-2-.24-3.27s-2.32-1.97-3.27-1.26z"/></g></g></svg>