<svg xmlns="http://www.w3.org/2000/svg" viewBox="0 0 320.73 175.99"><defs><style>.cls-5{letter-spacing:.1em}.cls-8{letter-spacing:.77em}.cls-9{letter-spacing:.1em}.cls-10{letter-spacing:.09em}.cls-18{letter-spacing:.83em}.cls-23{letter-spacing:.49em}</style></defs><g id="Capa_2" data-name="Capa 2"><g id="Capa_1-2" data-name="Capa 1"><text transform="translate(0 33.67)" font-size="40.82" fill="#231f20" font-family="Athelas-Regular,Athelas" letter-spacing=".08em">C<tspan x="30.77" y="0" letter-spacing=".1em">ON</tspan><tspan x="98.94" y="0" letter-spacing=".02em">T</tspan><tspan x="126.16" y="0" letter-spacing=".05em">A</tspan><tspan class="cls-5" x="156.45" y="0">C</tspan><tspan x="187.84" y="0">T</tspan><tspan class="cls-5" x="217.51" y="0">O</tspan></text><text transform="translate(.38 101.72)" font-size="13" font-family="MyriadPro-Regular,Myriad Pro" letter-spacing=".1em">Estamos<tspan class="cls-8" x="54.34" y="0"> </tspan><tspan x="67.11" y="0">aquí</tspan><tspan class="cls-8" x="96.1" y="0"> </tspan><tspan class="cls-9" x="108.87" y="0">pa</tspan><tspan class="cls-10" x="125.13" y="0">r</tspan><tspan class="cls-9" x="130.62" y="0">a</tspan><tspan class="cls-8" x="138.19" y="0"> </tspan><tspan x="150.96" y="0" letter-spacing=".09em">a</tspan><tspan class="cls-9" x="158.42" y="0">yuda</tspan><tspan x="190.5" y="0" letter-spacing=".05em">r</tspan><tspan class="cls-9" x="195.36" y="0">.</tspan><tspan x="199.36" y="0" letter-spacing=".77em"> </tspan><tspan x="212.13" y="0" letter-spacing=".07em">P</tspan><tspan x="220" y="0">a</tspan><tspan x="227.57" y="0">r</tspan><tspan x="233.06" y="0">a</tspan><tspan class="cls-8" x="240.62" y="0"> </tspan><tspan x="253.39" y="0" letter-spacing=".09em">c</tspan><tspan class="cls-9" x="260.44" y="0">onsultas </tspan><tspan x="0" y="20">gene</tspan><tspan class="cls-10" x="32.71" y="20">r</tspan><tspan x="38.19" y="20">ale</tspan><tspan x="57.94" y="20" letter-spacing=".09em">s</tspan><tspan x="64.25" y="20">,</tspan><tspan class="cls-18" x="68.24" y="20"> </tspan><tspan x="81.81" y="20">pedidos</tspan><tspan class="cls-18" x="134.81" y="20"> </tspan><tspan x="148.37" y="20">o</tspan><tspan class="cls-18" x="156.81" y="20"> </tspan><tspan x="170.38" y="20">p</tspan><tspan x="179.08" y="20" letter-spacing=".09em">r</tspan><tspan x="184.5" y="20">egu</tspan><tspan x="209.34" y="20">n</tspan><tspan class="cls-9" x="217.8" y="20">tas</tspan><tspan class="cls-18" x="237.42" y="20"> </tspan><tspan x="250.99" y="20">sob</tspan><tspan x="274.57" y="20" letter-spacing=".09em">r</tspan><tspan class="cls-9" x="279.99" y="20">e</tspan><tspan class="cls-18" x="287.8" y="20"> </tspan><tspan x="301.37" y="20">su </tspan><tspan x="0" y="40">pedid</tspan><tspan x="38.12" y="40" letter-spacing=".08em">o</tspan><tspan class="cls-9" x="46.24" y="40">,</tspan><tspan class="cls-23" x="50.23" y="40"> </tspan><tspan x="59.4" y="40">e</tspan><tspan x="67.21" y="40" letter-spacing=".09em">n</tspan><tspan x="75.56" y="40">víenos</tspan><tspan class="cls-23" x="118.67" y="40"> </tspan><tspan class="cls-9" x="127.84" y="40">un</tspan><tspan class="cls-23" x="144.82" y="40"> </tspan><tspan class="cls-9" x="153.99" y="40">mensaje</tspan><tspan class="cls-23" x="208.74" y="40"> </tspan><tspan class="cls-9" x="217.91" y="40">o</tspan><tspan class="cls-23" x="226.35" y="40"> </tspan><tspan x="235.52" y="40">llámenos</tspan><tspan x="295.18" y="40" letter-spacing=".49em"> </tspan><tspan x="304.35" y="40">al </tspan><tspan x="0" y="60">(914) 510-2824</tspan></text></g></g></svg>